<svg version="1" xmlns="http://www.w3.org/2000/svg" width="666.667" height="666.667" viewBox="0 0 500.000000 500.000000"><path d="M415.6 98.7c-.6 1.4-.5 1.5.5.6.7-.7 1-1.5.7-1.8-.3-.3-.9.2-1.2 1.2zM141.9 105.2c-.6 2.1-.5 3.8.1 3.8.5 0 .8-.9.7-2-.1-1.7-.5-2.6-.8-1.8zM148 108.5c-1.9 2.2-.8 2.5 1.3.3.9-1 1.3-1.8.8-1.8s-1.4.7-2.1 1.5zM154.6 108.2c.3.5.9.7 1.2.4.3-.3 1.2 0 2.1.6 1.3 1 1.4 1 .4-.2-1.5-1.6-4.6-2.3-3.7-.8zM414.6 107.9c-.3.5.2.8 1.2.7.9 0 1.6.5 1.4 1.2-.1.8.2 1.1.8.7.8-.5.7-1.1-.1-2.1-1.3-1.6-2.5-1.8-3.3-.5zM431.9 108.2c-.7 2.1-.8 5.8-.2 5.8.5 0 .8-1.4.8-3 .1-2.5-.2-3.8-.6-2.8zM59.5 109.7c.3.3-.2 1.4-1.1 2.4-1 1.1-1.2 1.9-.4 2.4.6.3 1 .3.9-.2-.3-2 .2-2.7 1.1-1.3.8 1.2.9 1 .7-.7-.2-1.2-.6-2.5-1-2.8-.4-.3-.5-.2-.2.2z"/><path d="M149.5 109.9c-.3.2-.5 1.3-.5 2.3 0 1.9-.1 1.9-2.6-.1-1.5-1.2-3.2-2.1-3.8-2.1-.6.1.2.8 1.7 1.6 1.6.9 2.5 2 2 2.6-.5.9-.8.9-1.1 0-.3-1-.7-1-1.7-.2s-1.9.8-3.4 0c-1.7-.9-2-.8-1.5.5.3.8 1 1.2 1.5.9.5-.3.9.1.9.8 0 .8-.9 1.4-1.9 1.5-1.4.1-1.8-.3-1.4-1.5.4-1.4.3-1.4-.5-.2-.6.8-.9 1.7-.6 2.1.2.4-.6 1.5-1.8 2.4l-2.3 1.7 2.5-.8c2.2-.6 2.3-.5 1.1.9-1 1.3-1.8 1.4-3.5.6-1.8-.8-1.9-.8-.6.3 1.6 1.4 2 4.2.7 5.4-.4.4-.7 0-.7-.9s-.4-1.8-.9-2.1c-.4-.3-.6.6-.3 1.9.2 1.4.9 2.5 1.4 2.5.5 0 .6.5.2 1.2-.5.7-.3.8.6.3 1-.6 1.2-.4.7.9-.6 1.4-.3 1.6 1.3 1.1 1.2-.4 2-.2 2 .5 0 .6-.4.9-.9.6-.5-.3-1.1.1-1.5.9-.3.8-.1 1.7.4 2 .5.3.6 1.3.3 2.2-.4 1.1-.3 1.4.5.9.7-.4 1.2-.3 1.2.1 0 .5-1 1.4-2.2 2.2-2.1 1.3-2.2 1.3-.9-.2 1.1-1.4 1.1-1.7.1-1.7-.8 0-1-.3-.7-.6.3-.4-.3-1.8-1.4-3.2-1.5-2-1.7-2.7-.7-3.4.8-.4.8-.8.2-.8-1.9 0-2.4 1.2-1.3 3.2.7 1.4.7 2.3-.2 3.4-.8 1-.8 1.4 0 1.4.6 0 1.1-.5 1.1-1 0-.6.4-1 .8-1 .5 0 .9.7.9 1.5s-.4 1.5-.9 1.5-.6.5-.2 1.2c.5.7.3.8-.7.2-2.4-1.5-4.1-1.4-3.5.2.4 1 .2 1.2-.7.7-.6-.4-1.5-.8-1.9-.8-.3 0-1-.4-1.5-.9-.4-.5-.3-.6.4-.2.6.3 1.4.3 1.7-.2.2-.4-.7-.9-2.2-1-5-.3-6.2-.5-6.2-1.3 0-.9-2-.6-3.9.5-1.1.7-1.2.6-.6-.5.7-1.1.6-1.2-.6-.3-.8.7-3.3 1.5-5.5 1.9-2.3.3-5.1 1.5-6.3 2.6-1.2 1.1-2.6 1.7-3.3 1.3-.7-.4-.8-.3-.4.5.6.9 0 1.1-2.1.7-1.5-.2-3-.5-3.3-.6-.3-.1-.9-.2-1.3-.1-.5.1-.6-.3-.3-.8.9-1.4-1.5-2.6-4.3-2.2-1.5.2-2.1-.1-1.7-.8.4-.6.2-1.1-.3-1.1-.6 0-1.1.6-1.2 1.2 0 .7-.4.4-.8-.7-.5-1.2-.4-2.3.3-2.8.7-.6.6-.7-.4-.4-.8.2-1.4 1.1-1.4 2 .1.9-.4 1.3-1.2 1-1.6-.6-1.8-1.9-.4-2.8.6-.4.7-1.1.4-1.7-.5-.7-.1-.9.9-.5.9.3 2.1-.1 2.8-1.1 1.1-1.4 1.1-1.5 0-.5-1.6 1.4-4.4.6-3.4-1.1.4-.6-.2-.4-1.3.4-1 .8-2.1 1.6-2.3 1.7-.2.1.2.9.9 1.8.8 1 .9 1.5.1 1.5-.6 0-1.1-.5-1.1-1 0-.6-.9-1.9-2-3s-1.5-2-1-2c.6 0 1-.5 1-1.1 0-.5-.4-.7-1-.4-.5.3-1 .1-1-.5s-.5-.8-1.2-.4-.8.3-.4-.4c.5-.8 1.3-.8 3.1 0s2.2 1.4 1.4 2.4c-.7.8-.7 1.4.1 1.9.5.3 1-.1 1-1 0-1 .5-1.4 1.3-.9.9.5.9.4 0-.6-1-1.1-.9-1.8.4-3.4 1-1.2 1.1-1.5.3-.9-1.7 1.5-3.4 1.7-2.5.3.3-.6.1-1-.5-1s-.8-.4-.5-1c.4-.6-.1-.7-1.2-.4-1.6.5-1.6.4.1-1 1.1-.9 1.5-1.6 1-1.6-.6 0-1.5.5-2.2 1.2-.9.9-1.2.9-1.2 0 0-.6.8-1.6 1.8-2.1.9-.6 1.2-1.1.6-1.1-.5 0-1.5.5-2.2 1.2-.9.9-1.2.9-1.2.1 0-.7.5-1.5 1-1.8.6-.3 1-1.2 1-1.8 0-.7-.5-.4-1.1.6-.6.9-1.5 1.5-2.1 1.1-.7-.4-.5-1 .3-1.6 1-.7.8-.8-.8-.3-1.5.4-2.6-.1-3.7-1.6-.9-1.3-1.9-2-2.2-1.6-.4.4.4 1.6 1.7 2.8 2.1 1.8 2.1 2 .4 1.4-2.7-.9-5.7-1.6-7.2-1.7-1.6-.2-1.7-1.4-.3-2.1.6-.3.5-.4-.2-.3-.7.1-1.4 1.3-1.4 2.5-.2 2.8-.6 3.2-2.4 2.1-1-.7-1.1-1-.2-1 .6 0 1.2-.5 1.2-1.1 0-.8-.5-.8-1.5.1-.8.7-1.3 1.6-1 2 .3.4-.2 1.1-1.1 1.4-.8.3-1.2 1-.9 1.6.3.5 0 1-.7 1-.9 0-.9.3.2 1 1.3.9 1.3 1 0 1.1-.8.1-1.8.1-2.2 0-.4 0-.4.7-.1 1.6.5 1.2.3 1.4-.7.8-.9-.5-1.1-.4-.6.3.4.7.1 1.2-.6 1.2-.9 0-.9.3.2 1 1.3.9.7 1.4-1.2 1.1-.4 0-.4.7-.1 1.6.5 1.2.3 1.4-.8.8-1.1-.7-1.1-.5.1 1 1.4 1.7 1.3 1.8-.5 1.2-1.8-.7-1.9-.6-.3.6 2.2 1.7 1.1 3.1-1.1 1.5-1.3-1-1.4-1-.4.2 1.5 1.7 1.7 3.4.3 2.5-.5-.3-1-.1-1 .4 0 1.4.6 1.4 3.1 0 1.1-.5 1.7-1.4 1.4-2-.4-.5 0-.9.7-.9 1 0 1-.2 0-.9-1.7-1.1-1.7-2.2 0-3.2.7-.5 1.3-1.4 1.3-2.1.1-.7.6-1.2 1.3-1.1.7.2 1.2-.2 1.2-.7 0-.6-.4-1-1-1-.5 0-.7-.7-.4-1.5.4-.8 1.1-1.5 1.6-1.5.6 0 .7.7.4 1.6-.3.8-.2 1.2.3.9.5-.3 1.3 0 1.7.6.4.7.3.9-.3.6-1.6-1-2.3 1.8-1 3.4 1 1.1.9 1.1-.4.1-2.2-1.6-3.3-.2-1.1 1.5 1.5 1.3 1.5 1.3-.6.3-1.8-.9-2.2-.8-2.2.5 0 .9.4 1.4.8 1.1.4-.2 1.4 0 2.2.6 1.2.8 1.2.9-.2.4-2.6-.8-3.2 1.1-1.3 4.2l1.6 2.7-1.9-2.2c-2.3-2.6-3.6-1.9-2.1 1 .8 1.4.8 1.8 0 1.3-.6-.4-1.1-.2-1.1.5 0 .6.8.9 2 .6 1.2-.3 1.8-.1 1.4.5-.3.5-1.5.8-2.5.5-1.1-.3-1.9-.1-1.9.4s.4.9.9.9.8 1.4.6 3.2c-.4 2.4-.2 2.9.7 2 .7-.7 1.6-1.2 2.2-1.2.5 0 .1.6-.9 1.4-1.1.8-2.3 1.2-2.7 1-.5-.3-.8 0-.8.5 0 .6.8 1.1 1.8 1.1 1.4 0 1.4.2.3.9-1.8 1.1-4.3-.9-3-2.5.5-.6.6-1.4.2-1.7-.3-.4-.1-.7.5-.7.7 0 1.2-.5 1.2-1.1 0-.5-.4-.7-1-.4-.6.3-.7-.1-.4-.9.4-.9.1-1.6-.6-1.6-.9 0-1-.3-.1-1.3.6-.8.8-1.7.4-2-.3-.4-.1-.7.5-.7.7 0 1.2-.5 1.2-1 0-.6-.7-.6-1.9.2-1.7 1.1-2.7 5.8-1.1 5.8 1.1 0 .8 3-.4 3-.6 0-2 1.3-3 2.8l-1.9 2.7 2.4-2.3c3.4-3 4.8-2.8 1.9.3-1.3 1.4-2 2.8-1.7 3.2.4.3.7.2.7-.4 0-.5.7-1 1.5-1s1.5.7 1.5 1.4c0 .8.4 1.1 1 .8.5-.3 1-.1 1 .5s.4.8 1 .5c.5-.3 1-.1 1 .5 0 .7-.8.9-2.1.5-1.5-.5-1.9-.4-1.5.4.4.6-.4 1.5-1.8 2.1-3 1.1-3.5 2.4-.6 1.5 1.1-.3 2-.2 2 .4 0 .5-.9 1.3-2.1 1.6-1.7.6-1.8.9-.7 2.2 1.1 1.4 1 1.5-.9.9-1.2-.4-2.4-.3-2.6.1-.3.5.2.9 1.1.9.9.1 2.4.3 3.2.5.9.2 1.4-.2 1.2-.9-.1-.8.2-1.1.8-.7.7.4.7 1.3-.1 2.6-.9 1.7-1.3 1.8-2.7.7-1-.8-.8-.1.6 1.9 2.1 3 2.1 3.2.5 4.3-1.7 1.1-1.7 1.1.1.6 1.4-.5 1.7-.2 1.2.9-.3.9-.2 1.3.4 1 .6-.3 1-.2 1 .3s-1 1.4-2.2 1.9c-2.2 1-2.2 1 .5 1 1.5 0 3-.4 3.4-1 .3-.5.2-.7-.4-.4-.6.4-.9-.4-.7-1.8.1-1.4-.1-2.5-.5-2.5-1 0-.8-5.1.2-6.8 1-1.5 2.7-1.6 2.7-.1 0 .5-.4.7-1 .4-1.9-1.2-1 2.9 1.2 5.4l2.3 2.6-2.2-1.9c-1.3-1.1-2.3-1.4-2.3-.8 0 .6.5 1.4 1 1.7.6.4.8 1.1.4 1.6-.3.5 0 1.7.8 2.6.7.9.8 1.4.2 1-.7-.4-1.4 0-1.8.8-.3.8-1.1 1.2-1.8 1-.8-.3-2.2.2-3.3 1-1.9 1.6-1.9 1.6.2.6 2.8-1.4 3.6-1.4 2.7 0-.3.6.5.4 1.9-.6 1.6-1 2.7-1.2 3.1-.6.4.6 1.4.8 2.4.5 1.6-.5 1.6-.5 0 .6-1.6 1-1.7 1.3-.2 3.5.8 1.3 2.1 2.2 2.8 1.9.8-.3 1.6.4 1.8 1.4.6 2.3-.6 4.9-1.6 3.4-.3-.6 0-1.3.6-1.5 1-.4 1-.6 0-.6-.8-.1-1-.6-.6-1.4.5-.8.2-.8-.9.2-1.5 1.2-2.1.9-1.8-1.2 0-.4-.4-.7-1-.7-.5 0-.7-.5-.3-1.2.5-.7.3-.8-.7-.2-1.4.9-1.9 1-3.9 1.3-.5 0-1 .5-1 1 0 1 1.9.9 3.8-.2 1.5-1 1.6.5.1 2-.8.8-.5 1.3 1 1.8 2.3.7 5.4 5.8 4.3 7-.4.5-.2.6.3.3 1.3-.6 4.6 2.8 3.7 3.8-.4.4-.1.4.7-.1 1.2-.7 1.2-1 0-1.9-1.9-1.4-4.9-5.8-4.9-7.1 0-.5 1.1.2 2.4 1.5 1.3 1.4 2.1 2.9 1.8 3.5-.3.5.1.4.9-.3 1.8-1.7 3.4-1.5 2 .2-.9 1.1-.9 1.6.1 2.2.7.4 1 .4.6-.1-.4-.4-.3-1.4.3-2.1.9-1 .7-1.5-.5-2-.9-.3-1.4-1-1.1-1.4.3-.5 0-1.2-.6-1.6-.7-.4-.9-.3-.5.4.3.6.2 1.4-.4 1.7-.6.4-.9.1-.8-.7.2-.7-.3-1.2-1.1-1-1.2.3-1.2 0-.2-1.2.7-.9 1.8-1.3 2.5-.9 1.7 1.1 3.6 1.2 3.6.2 0-.5.5-.9 1.2-.9.6 0 .4.7-.5 1.8-2.2 2.4-2.2 3.8 0 2.1 1.4-1.2 1.6-1.2.8.1-.5.8-1 2.5-1.1 3.9-.2 1.4-1.3 3.4-2.6 4.4l-2.3 1.8 2.3-1.1c1.2-.6 2.2-.7 2.2-.1 0 .5-.7 1.1-1.5 1.5-.8.3-1.4.9-1.4 1.3.3 1.3-1.4 4.7-3 6.1-.9.8-1 1.1-.3.7 1.5-.8 1.5 0 .1 2.7-.7 1.3-.7 1.8-.1 1.4.6-.3 1.3-.2 1.7.4.3.5.1 1-.4 1-.6 0-1.1.4-1.1 1 0 .5.8.7 1.7.3 1-.3 1.5-.3 1.1.2-.4.4-.3 1.6.2 2.6.7 1.2.7 2 0 2.4-.8.5-.7 1.1.1 2.1.9 1.1.8 1.5-.2 1.9-.8.3-1.5 1.7-1.5 3-.2 2.1.1 2.4 1.2 1.4.8-.7 1.7-.9 2.1-.6.3.4-.2.9-1.1 1.3-.9.3-1.3 1.1-.9 1.7.3.6.1.7-.6.3-.6-.4-1.4 0-1.7.8-.3.9-1.1 1.6-1.8 1.6-1.7 0-3.5 3.5-2.6 5.1.5.8.4 1.9-.2 2.6-1.2 1.5.3 1.7 2 .3.7-.5.6-.2-.2.7-1.2 1.3-1.8 1.4-3 .3-2.1-1.6-2-.2 0 2.1 1.7 1.9 1 4.3-1.1 3.5-1.5-.5-2.7 1.7-1.9 3.8.4.9-.2 1.3-1.9 1.1-2.1-.3-2.4 0-1.9 1.9.5 1.7.7 1.8 1 .3.2-.9.8-1.7 1.3-1.7s.8.6.7 1.2c-.2.7.3 1.2 1 1 .6-.1 1.2.3 1.2.9 0 .5.4.8.8.5 1.2-.7 3.8 1.2 2.9 2.1-.5.4-1.1.3-1.5-.2-.9-1.3-6.2-1.7-6.2-.4 0 .6.5.7 1.2.3.8-.5.9-.2.5 1-.6 1.4-.3 1.5 1.4.6 1.4-.8 2.4-.8 3.3-.1.9.7 1.7.7 2.6-.2.8-.6.6-.2-.4 1-1.5 1.8-2.2 2-3.3 1.1-1-.8-1.7-.8-2.5 0-1.1 1.1 0 1.7 2.5 1.3.9-.1.9 1.6 0 2.2-.5.2-.2.2.5.1 1.5-.4 1.5.1.2 2.6-.8 1.4-.5 2.1 1.5 3.4 2.4 1.6 2.5 5.3.1 3.9-.6-.3-.7-.2-.3.2 1.3 1.5 3.6 1.4 4.9-.3 1.2-1.6 1.1-1.6-.6-.2-1.8 1.4-1.9 1.3-1.4-.1.4-.9.1-2.2-.5-2.8-.8-.8-.8-1.1 0-1.1.7 0 1.5.5 1.8 1 .4.6 1.1.8 1.6.5.8-.6 1.3.9 1 2.8-.1.5.3.6.9.2.5-.3 1-.1 1 .5s.5.8 1.1.4c.7-.4.9 0 .5 1.3-.4 1.2-.1 2.5.7 3.1 1 .9 1.4.8 1.4-.3 0-.8-.5-1.1-1-.8-.7.4-.8-.1-.3-1.3 1.3-3.3 1.5-5.4.5-5.5-.5-.1-1.3-.3-1.9-.4-.5-.1-1.4-.3-2-.4-.5 0-1-1-1-2.2 0-1.2-.4-1.7-1.1-1.4-.6.4-.8 1.4-.5 2.4.5 1.3.4 1.3-.8-.2-1.4-1.8-1.1-5.7.5-5.7.5 0 .6.7.3 1.5-.4 1 0 1.3 1.6 1 1.6-.3 2 0 1.6 1.3-.4 1.3 0 1.8 1.4 1.9 1.1.1 1.8-.2 1.5-.7-.9-1.5 1.4-2.2 3.2-1 1.5.9 1.4 1-.7.4-2.2-.6-2.3-.5-1.1.9.7.9 1.7 1.4 2.2 1.1.5-.3.9 0 .9.5 0 .6-.5 1.1-1.1 1.1-.5 0-.8.4-.4.9.3.5 0 1.3-.6 1.7-.8.4-.7.9.2 1.5.8.5.9.9.3.9-.7 0-1 1.3-.9 3.1.2 2.1-.1 2.9-1 2.5-.8-.3-1.9.3-2.7 1.2-1.2 1.5-1.1 1.6.4.4 1.1-.9 1.8-1 2.3-.2.3.5.1 1-.5 1-.7 0-1 .6-.7 1.2.2.7-.3 2.2-1.2 3.2-.9 1.1-1 1.6-.4 1.2.9-.5 1.1-.2.7.8-.3.9-.9 1.4-1.3 1.1-.4-.2-.8.2-.8 1s.4 1.2.9.9c.4-.3.8 0 .8.5 0 .6-.4 1.1-1 1.1-.5 0-.6.7-.3 1.7.4 1.1.3 1.4-.5.9-.8-.5-1-.2-.6.9.4.9 0 2.3-.8 3.3-1.5 1.7-1.7 2.7-1.9 8.9-.1 2.1-.6 3.1-1.3 2.7-.6-.3-.4 0 .4.8.9.7 1.5 2.4 1.5 3.8s.2 2.7.6 3c.4.3.9 2.1 1.2 4.1.2 2 .7 4.2 1.1 4.7.4.6-.2 1.5-1.1 2.1-1.4.8-1.5 1.1-.3 1.2.8.1 1.8.1 2.2 0 .4 0 .3 1-.3 2.3-.7 1.4-1.7 2.2-2.5 1.9-.8-.3-1.4 0-1.4.7 0 .6.5.8 1 .5.8-.5.8 3.2-.1 4.2-.2.3-.5 1.7-.8 3-.1.5-.6.1-1.1-.7-.5-.8-1-1-1-.4 0 1.8 1.2 2.4 2.5 1.4.9-.8 1.4-.6 1.9.5.3.9.2 1.4-.2 1.1-.4-.2-1.5.2-2.5.9-1.5 1.1-1.6 1.4-.2 2.5 1.2 1 1.9 1 2.7.2.7-.7.9-1.2.4-1.2-.4 0 0-.7.8-1.6 1.7-1.6 2.2-3.9.7-3-.5.3-1.4 0-2-.8-.9-1-.8-1.6.4-2.6.8-.7 1.3-1.5 1.1-1.9-.9-1.4.9-3 2.4-2.1 1.3.8 1.2 1-.3 1s-1.5.2.3 2c1.1 1.1 2 2.6 1.9 3.2 0 .7-.5.3-1.1-.9-1.3-2.7-3.4-3.1-2.3-.6s1.3 7.3.4 6.7c-.4-.2-.7.5-.6 1.6.1 1.1.7 2 1.4 2 .6 0 1.5.5 1.9 1.2.4.6.3.8-.3.5-2.2-1.4-8.1-1.8-8.8-.6-.5.8-.1.9 1.6.4l2.4-.7-2.4 2.6c-1.4 1.4-2 2.6-1.5 2.6s.2.5-.6 1c-.9.6-1 1-.3 1 .6 0 1.5-.5 1.8-1 .3-.6 1.1-1 1.7-1 .7 0 .6.6-.2 1.5-1 1.2-1 1.8.1 3.2.7 1 1.4 1.9 1.5 2.1.1.1 1.3-.2 2.7-.7 2.1-.8 2.5-.7 2 .5-.4 1 0 1.3 1.3.8 1.4-.4 1.6-.3.5.4-.7.5-1 1.5-.6 2.1.5.9 1.1.7 2.2-.6 1.3-1.7 1.3-1.7.4.3-.8 1.7-.7 2.5.6 3.5 1.4 1.2 1.5 1.1.9-1.1-.6-1.9-.5-2.1.3-1 1 1.3 1.1 1.3 1.2 0 .1-.8.1-1.9 0-2.3-.1-.5.3-.6.9-.2.6.3.7 1.2.3 1.8-.4.7-.8 2.5-.8 4.1 0 1.9-.6 3-1.7 3.2-1.2.1-1.5-.4-1.3-1.8.4-1.7.2-1.8-1.2-.6-1.2.9-1.5.9-.9 0 .4-.7.2-1.2-.4-1.2-.7 0-1-.7-.6-1.5.3-.8 0-1.4-.6-1.2-.7.1-1.2-.7-1.3-1.8 0-1.3-.5-1.9-1.5-1.6-.8.2-2.3.3-3.2.3-1.5-.1-1.4.2.3 1.9 1 1 1.9 2.4 1.9 3 0 .8.5.8 1.5-.1 1.8-1.5 2 0 .3 2-1 1.1-.9 1.1.6 0 1.8-1.4 1.9-1.3 1.3.3-.4 1-.7 2.3-.7 2.8 0 .6-.5.7-1.2.3-.7-.4-.8-.3-.4.5 1 1.5 2.6.4 2.6-1.7 0-1.2.3-1.3 1.2-.4.9.9.7 1.6-.7 3.2-1 1.1-1.5 2.3-1.2 2.7.4.3.7.1.7-.6s.5-.9 1-.6c.6.4 1 .3.9-.2-.3-2 .2-2.5 1.6-1.3 1.3 1.1 1.4 1 1-.2-.4-.9 0-1.5 1-1.5s1.3.6.9 1.9c-.3 1 0 1.8.6 1.8s.8-.5.4-1.2c-.5-.8-.2-.9.9-.5 1 .3 1.7.3 1.7-.1s.9-.8 1.9-.9c1.5-.1 1.8.3 1.4 1.5-.7 1.7-.1 1.4 4.7-3 1-.9 2.2-1.3 2.6-1 .4.4.4.1 0-.6-.6-.9-.2-1.2 1-1 1.3.2 2-.4 2.2-2 .2-1.2.8-2 1.3-1.7.5.4.9.1.9-.5 0-1.5-2.4-.7-6.7 2.3-2.1 1.4-2.8 2.4-2 2.9.6.4.8 1 .4 1.5-1 .9-2.8-1.8-2-3 .3-.5-.4-.6-1.5-.3-2.7.9-3.6-.8-1.4-2.5 1.5-1.3 1.6-1.2.3.3-1.6 2.1-1.2 2.2 2.1.5 1.5-.7 2.2-1.9 2.1-3.2-.3-1.7-.2-1.7.7.2.5 1.3 1.5 2 2.2 1.8 1.6-.6 1.9-4.6.3-4.2-.6.1-1-.2-1-.8 0-1.1 2.5-.8 4 .6.5.6.5.9-.3.9-.7 0-1.2.5-1.2 1.2 0 .9.3.9 1.2 0 .8-.8 1.7-.8 3.2-.1 1.6.8 1.6.6-.4-1-2-1.7-2.2-2.1-.7-2.1.9 0 1.7-.5 1.7-1 0-.7-.6-.7-1.9 0-1.3.7-2.2.7-2.6 0-.3-.5.3-1 1.5-1s1.9-.4 1.6-.8c-.8-1.3 3.8-1.2 4.6.1.5.7.7.2.6-1.3-.2-1.7.1-2.4 1.1-2.2 1.2.3 1.2 0 .2-1.2s-.9-1.5.6-1.9c1.5-.4 1.4-.5-.4-.6-2.1-.1-2.5-1.5-1-3.8.5-.8 0-.9-1.5-.5-1.6.4-2 .2-1.5-1 .3-.9 0-2.1-.6-2.7-.8-.8-.6-1.5.9-2.6 1.2-.9 1.4-1.4.6-1.5-.7 0-1-.5-.7-1 .5-.8 1.1-.8 2 0 .9.7 1.6.6 2.6-.7 1.3-1.6 1.2-1.7-.3-.5-1.4 1.1-1.8 1-2.9-1-1.7-3-2-4.8-.7-4.8.5 0 .2-.7-.6-1.6-1.9-1.9-1.9-1.9-.4-4.7 1.1-2.1 1-2.1-.7-.7-1 .8-1.6 1-1.2.4.4-.7 0-1.7-.8-2.4-.9-.7-1.3-2.2-1-3.4.3-1.2.2-1.5-.1-.9-.9 2.1-2.1 1.5-2.6-1.2-.3-1.4-.1-2.5.4-2.5s.6-.5.3-1c-.3-.6.1-1.3.9-1.6.9-.3 1.3-1 1-1.5-.3-.5 0-.9.5-.9.6 0 1-.3 1-.8-.4-2.5.2-4.2 1.4-3.6.8.5.8.2-.2-.9-1.1-1.4-1.1-1.7 0-1.7s1.1-.2-.1-1c-.8-.5-1-1-.4-1 1.3 0 1.1-5.9-.4-8.7-.6-1.1-.8-2.4-.4-2.8.4-.5.1-.5-.5-.1-.7.4-1.3.4-1.4-.1 0-.7-.3-2.2-.9-4.8-.5-2.1 0-3.5 1.3-3.5 1.6 0 3.5-4.9 3.1-8.4-.2-1.8.1-2.4.9-1.9.8.4.7.1-.1-.9-.8-1-.9-1.9-.3-2.2.5-.3.7-1.5.4-2.6-.3-1.1-1-1.7-1.6-1.3-.6.4-.8-.2-.5-1.5.5-1.6.2-1.9-1.1-1.4-1.4.5-1.4.4-.2-1.1.9-1.2 1-1.7.2-1.7s-.8-.4.1-1.4c1-1.1 1.6-1.1 2.7-.2 1.2.9 1.3.8.6-.3-.6-1.1-.3-1.3 1.2-.9 1.2.3 2.7.2 3.4-.3.7-.4 1.9-.3 2.5.2.8.7 1.4.7 1.9 0 .4-.7 1.2-.7 2.3-.1 2.2 1.2 6.8 2.2 11.2 2.5 5.2.4 5.2.4 4.4 1.7-.4.6-.3.8.4.4 1.2-.7 9.2 2.4 9.2 3.7 0 .4.6.5 1.3 0 1.7-1.1 3.1-1 3.9.2.5.7.8.6.8-.1s2.1-1.2 5.5-1.2c3 0 5.5.4 5.5.9s.7.9 1.6.9c2.5 0 7.6 4.1 7 5.6-.3.8-.1 1.4.3 1.4.5 0 1.2.7 1.5 1.6.3.8.2 1.2-.4.9-.6-.3-.7.1-.4.9.3.9 1.1 1.6 1.8 1.6.6 0 .4.5-.4 1-1 .6-1.1 1-.2 1 .6 0 1.2.9 1.2 2s.5 2 1.1 2c.5 0 .7.5.4 1-.4.6-1 .8-1.5.5-.5-.3-1.2-.1-1.5.5-.4.6-.3 1 .2.9 2.2-.4 3.5.2 3 1.5-.3.7 0 1.9.6 2.6.9 1 .9 1.1 0 .6-1.7-.9-2.9 3.4-1.2 4.5 1.2.7 1.1.9-.1.9-1.2 0-1.2.2-.2.9 1.1.6 1 1-.4 1.5-1.6.6-1.5.8.2 2.8 1.1 1.2 1.4 1.9.9 1.5-.6-.3-1.6.3-2.3 1.3-1 1.6-.9 2.1.6 2.9 1.3.8 1.1.9-1.3.6-1.6-.2-3.4-.4-3.8-.4-.5-.1-.5-.6-.1-1.3.4-.7.3-.8-.4-.4-.6.4-.9 1.3-.6 2.1.4.8 1.1 1.2 1.6.9.5-.4.8.4.6 1.7-.1 1.2-1 2.5-1.8 2.7-1.3.5-1.3.3 0-1.4 1-1.4 1.1-1.6 0-.7-.7.7-1.4 2.2-1.5 3.3-.2 1.9-.1 1.9 1.7.3 1-.9 1.8-1.1 1.8-.5 0 .6-.5 1.4-1 1.7-.6.4-.8 1.1-.5 1.6.3.5-.1.6-.9.3-.9-.3-1.6-.2-1.6.3s.9.9 2 1c1.8.2 2.5-.8 2.1-3 0-.4.4-.7 1-.7.8 0 .8-.5-.1-1.5-.8-1-.9-1.5-.2-1.5.6 0 .9-.7.6-1.5-.4-.8-.1-1.5.4-1.5.6 0 .9 1.2.6 2.6-.3 1.6-.1 2.3.6 1.9.6-.4.2.8-.9 2.6s-1.8 3.6-1.5 4.1c.3.4-.2.5-1 .2-.9-.3-1.6-.1-1.6.6 0 .6.4.9 1 .5.5-.3.8.6.6 2.3-.3 2.3 0 2.8 1.7 2.9 2 .2 2 .1.5-.8-1-.6-1.8-1.5-1.8-2.1 0-.7.5-.6 1.5.2 1.2 1 1.8 1 3.2-.1.9-.8 1.4-.9 1-.2-.4.6-.4 1.3 0 1.6.5.2.2.2-.4.1-.7-.2-1.3.6-1.3 1.7 0 1.3-.4 1.8-1.2 1.3-.7-.4-.8-.3-.4.4s.3 1.2-.3 1.2c-.5 0-1.2-.6-1.4-1.3-.4-.9-.6-.9-.6.1-.1.8.8 1.6 1.9 1.9 1.4.4 1.9 1.1 1.5 2.3-.3 1-.1 2.1.4 2.4.6.4.8 1.3.4 2.1-.3.8 0 1.5.7 1.5.6 0 .9-.4.6-.9-.3-.5.1-1.1.9-1.5.8-.3 1.7-.1 2 .4.4.6.1 1-.6 1s-.4.6.6 1.4c1.1.8 2.2 1.3 2.5 1.1.3-.2 1.1.5 1.8 1.6 1.3 2.1.3 2.6-1.6.7-.9-.9-1.2-.9-1.2-.1 0 .7.8 1.4 1.8 1.7.9.3 2.3 1.5 2.9 2.5 1.4 2.2.7 5.5-1 4.4-.6-.3-.7-.1-.3.5 1 1.6 1.1 1.6 3.1-1.4 1.3-2 1.4-2.8.4-4-.9-1.1-.8-1.4.5-1.4 1 0 1.4.4 1.1 1-.3.5-.2 1 .4 1 .6 0 .7.7.4 1.7-.4 1.1-.3 1.4.5.9.8-.5 1-.1.5 1-.5 1.3-.2 1.6.9 1.1 1.2-.4 1.5 0 1.1 1.6-.4 1.8-.3 1.9.6.7.7-.9 1.1-1 1.1-.3 0 .6-.3 1.4-.8 1.7-.9.5-5.2-4.1-4.4-4.9.3-.3.3-.5 0-.5s-1.4 1.2-2.3 2.7c-1 1.6-1.2 2.2-.4 1.5 1.6-1.4 3.9-1.6 3.9-.2 0 .5-.6 1-1.4 1-.9 0-.4 1 1.4 2.8 2.1 2.2 2.7 3.7 2.6 6.3-.2 2.1-.7 3.3-1.5 3.1-.7-.1-1 .2-.6.8.4.6 1.3.5 2.5-.2 1.3-.8 1.6-1.6 1-2.2-2-2-.9-2.8 1.2-1 1.9 1.5 2 1.6.9.1-.8-1-.9-1.7-.3-1.7.6 0 1.4.5 1.7 1 .6 1 4.5.7 6.4-.5.5-.3.8-1.4.6-2.5-.2-1.2 0-1.8.5-1.5.9.6.8 2.4-.3 4.3-.5.6-.5 1.7-.1 2.4.5.7 1 .3 1.6-1.2.5-1.2 1.1-2 1.4-1.7.3.3.1 1.5-.6 2.6-1.6 3 .4 2.6 2.5-.5 1.1-1.8 2.3-2.4 3.6-2.1 1.1.3 1.9 0 1.9-.6 0-.7.5-.5 1 .3.9 1.3 1.1 1.3 2.1 0 .9-1.3 1-1.2.5.2-.3 1-.1 1.8.4 1.8s.7.7.4 1.5c-.4.8-1 1.2-1.5.9-.5-.3-.7-1-.4-1.5.4-.5.1-.9-.4-.9-.6 0-1.1.6-1.1 1.2 0 1-.3.9-.9-.1-.5-.7-1.1-.9-1.3-.5-.3.5-.3.3-.2-.4.2-.6-.3-1.2-1.2-1.2-1.2 0-1.3.4-.3 2.1.8 1.6.8 2 0 1.4-.6-.3-1.1-.3-1 .2.1.4.1 1.5 0 2.3-.1 1.3-.2 1.3-1.1 0-.9-1.3-1.1-1.3-2 0-.6 1-1 1.1-1 .2 0-.6-.6-1.1-1.2-1-.7.2-1.2-.4-1-1.2.3-1.1-.1-1-1.7.4-1.7 1.5-2 4.6-.4 4.6.3 0 .3-.7 0-1.5-.4-.8-.2-1.7.3-2 .6-.4 1-.1 1 .4 0 .6.7 1.1 1.6 1.1.9 0 1.2.5.8 1.2-.5.9-.2.9.9-.1 1.4-1.1 2-1.1 3.4 0 .9.8 1.4.9 1 .3-.4-.7 0-1.4.8-1.8.8-.3 1.7-.1 2 .3.2.5 1.4 1.1 2.5 1.4 2 .5 2.1.4.6-1.8-2-3.1-2-4.1-.1-2.5 1.2 1 1.6.9 2.1-.4.3-.9 1.1-1.3 1.8-.9.6.3.6.1-.1-.8-1.8-1.8-1.6-2.6.8-3.2 1.6-.4 1.8-.3.8.9-1.1 1.4.1 2 1.4.7 1-1 5.6-1.3 6.2-.4.2.5 1.7.6 3.1.3 1.8-.3 2.5-.1 2 .6-.3.6-.2 1.4.4 1.7.6.4 1 .3.9-.2-.3-2 .2-2.5 1.6-1.3.9.8 1.5.9 1.5.2 0-.6.9-.9 1.9-.7 3 .6 3.4-2.3.6-4.1-1.4-.9-2.3-1.9-2.1-2.3.3-.4-.5-.8-1.7-.8-1.2-.1-2.3-.7-2.5-1.3-.2-.5-.9-1-1.7-1-.7 0-1.8-.7-2.5-1.5s-1.6-1.2-2.1-.9c-.5.3-.9 0-.9-.6s-.4-.9-.9-.6c-.5.4-.8-.5-.6-1.9.1-1.4-.2-2.8-.8-3.2-.6-.3-.7-.1-.3.5.3.6.1 1.4-.5 1.8-.7.4-.9.3-.5-.4.3-.6.2-1.3-.4-1.7-.6-.4-.8-1-.5-1.5.3-.5.1-1.1-.4-1.4-.5-.3-.7-1.5-.4-2.6.3-1.2 0-2-.6-2-.7 0-1-.4-.7-.9.4-.5.1-1.1-.6-1.3-.7-.3-.5-.7.6-1.1 1.1-.5 1.5-.3 1 .5-.4.7-.3.8.4.4.8-.4 1-.2.6.7-.3.8-.1 1.8.4 2.1.5.3 1-.6 1-1.9 0-1.4-.5-2.5-1-2.5-.6 0-.5-.6.2-1.5.9-1.1.8-2-1-4.5-2.6-3.6-2.8-3.7-2.5-.5.3 2.7-.9 3.4-1.8 1.1-.3-.8.1-2.2.8-3.3 1.9-2.4 1.9-3.9 0-2.3-1 .9-1.5.9-1.5.1 0-.6.4-1.1.9-1.1s.8-.8.6-1.8c-.1-.9.1-2.2.6-2.7.4-.6.7-2 .5-3-.2-1.1.4-2.6 1.3-3.3 1.4-1.1 1.3-1.2-.6-.7-1.7.5-2.2.1-2.5-1.7-.2-1.5-.9-2.2-2-2-1.1.2-1.8-.3-1.8-1.3 0-.8-.9-1.5-2-1.5s-2-.7-2-1.5-.5-1.5-1.1-1.5c-.5 0-.7-.5-.3-1.1.3-.6 0-1.5-.7-2-1.1-.7-1.1-.9-.1-.9.8 0 1-.5.6-1.2-1.1-1.7-1.2-10.1-.2-11.5.6-.7.4-1.4-.3-1.9-.8-.5-.9-.3-.4.6.5.9.4 1.1-.4.6-.9-.6-.9-1.1 0-2.2s.9-1.4-.1-1.4-1-.3 0-1.5c.7-.9 1-1.8.6-2.2-.3-.3-.6-.1-.6.6s-.4 1-.9.7c-.5-.4-.8-1.7-.7-3.1.2-1.4-.1-2.2-.7-1.8-.6.4-.8-.2-.5-1.5.4-1.2.3-2-.2-1.7-.9.6-3.2-2-2.4-2.8.3-.3-.4-.8-1.5-1.2-2-.6-6.1-5.5-6.1-7.2 0-.4.4-.2.9.6.7 1 .9.6.8-1.3-.2-2.3-.3-2.4-1.4-.9-.7.9-1.6 1.3-2 1-.4-.4-.2-1.2.4-1.8.6-.6.9-1.9.6-2.8-.5-1.3-.3-1.4.8-.4.7.7 1.7 1.3 2.2 1.3.5 0-.1-.9-1.4-2-1.9-1.5-2.1-1.9-.7-2 .9 0 1.8.3 2.1.7.2.5.2.3.1-.4-.2-.6 1.1-2 2.7-3.1 2.5-1.6 2.8-2 1.4-2.6-1-.3-1.3-1.1-.9-1.8.6-.9.3-.9-.9.1-.9.7-1.4 1.7-1.1 2.2.3.5 0 1-.5 1-.6.1-1.5.2-2 .3-.5 0-1.3.5-1.8 1s.1.7 1.5.3c3.2-.8 2.7 0-1.4 1.9-1.9.9-3.1 2-2.6 2.3 1.1.7 1.2 4.1 0 4.1-.4 0-.8-1-.8-2.2 0-1.2-.3-1.8-.6-1.5-1 .9-4.6-1.2-3.9-2.4.4-.5.3-.9-.2-1-2.9-.3-4.8-.9-5.1-1.8-.2-.6-.8-1.1-1.4-1.1-.6 0-.8.6-.5 1.4.6 1.4-1.7 1.7-2.8.3-.3-.4-.2-.5.2-.2.3.3 1.2-.3 1.8-1.2 1.1-1.5 1.5-1.5 3-.3 2.2 1.8 8.8 2.4 7.8.7-.4-.7.1-.6 1 .2 2.3 1.8 5.4-.4 3.6-2.6-1-1.1-.9-1.2.5-.7.9.3 1.6 1.1 1.6 1.8 0 .6.6.2 1.2-.9s1.7-2.3 2.4-2.8c.7-.4 1.1-1.6.9-2.7-.5-2.4-.1-2.5 1.6-.3.8 1 .9 1.4.2 1-.8-.5-1.1-.1-.8 1.4.6 2.9 1.3 3.5 2.6 2.2.7-.7.8-1.9.3-3-.4-1-.8-2.5-.9-3.3 0-.8-.7-1.4-1.5-1.2-1.1.3-1.1.1 0-1.3 1.3-1.5 1.5-1.5 2.6-.1 1.4 2 2.1 2 2.1.1 0-.8-.4-1.2-.8-.9-2.5 1.5-.5-5.5 2.2-7.6.3-.3.5-1.3.4-2.2-.2-.9.3-2.9 1.1-4.4 1.1-2.1 1.2-2.9.2-3.5-.9-.6-.9-1.3 0-3.4 1.1-2.5 1.1-2.7-.5-2.1-1.6.5-1.5.4.1-.9 1.1-.8 1.5-1.5 1-1.5-1.3 0-1.7-6.7-.5-7.5.6-.3.8-1.2.4-2-.4-1.1-.1-1.3 1.3-.8 1.6.6 1.7.4.7-.8-1-1.2-1-1.8 0-2.9.9-1 .9-1.1-.1-.6-.7.4-.4-.7.7-2.5s1.8-3.6 1.5-4.1c-.3-.4 0-.8.6-.8s.8-.5.5-1c-.3-.6-.1-1 .5-1s.8-.5.5-1c-.3-.6 0-1.3.9-1.6.8-.3 1.2-1.2.9-2-.3-.8 0-1.4.5-1.4 1.7 0 .3-5.2-2.4-9.1-2.6-3.8-3.3-7.6-1.1-6.3.9.6.9.4-.1-.8-1.1-1.4-1-1.7.5-2.1 1.6-.4 1.6-.5.1-.6-1 0-1.5-.7-1.3-1.4.8-1.9-4.3-5.1-8.4-5.3-5.1-.3-5.1-.3-5.1-1.5 0-.5.6-.7 1.3-.3.8.5.8.2-.2-.9-.7-.9-1.1-1.7-.8-1.7 1.2 0-1.6-7.6-3.4-9.3-1-1-1.9-1.5-1.9-1.1 0 .4-1.2-.3-2.7-1.7-1.4-1.3-2.3-1.9-1.9-1.2.3.6.2 1.4-.4 1.8-.5.3-1 0-1-.7 0-1-.2-1-.9.1-.6.9-1.1 1-1.5.2-.4-.6-1.3-.8-1.9-.4-.9.5-.9.3 0-.8 1-1.2.8-1.5-.8-1.5-1.1 0-1.8.5-1.5 1.1.2.7-.2 1.2-1 1.2s-1.2-.3-.9-.6c.3-.3-.5-1.1-1.7-1.8-1.3-.7-1.8-1.2-1.1-1.3 1.3 0 1.2-1.8-.2-4-1.1-1.8-1.4-7.1-.4-6.4.4.2 1 0 1.4-.6.9-1.5 2.2-1.2 2.2.5 0 .8-.4 1.2-.9.9-1.8-1.2-2.9.8-1.1 2.3 1 .8 1.3 1.2.7.9-.6-.3-1.1.1-1.1.9s.4 1.2.8.9c.4-.2.6.5.4 1.6-.3 1.4 0 1.8.8 1.3.7-.4.5.2-.3 1.2-1.4 1.7-1.4 1.8.5.8 1.1-.6 2.6-.9 3.3-.7.7.1.8 0 .2-.3-.5-.2-.8-.9-.5-1.3.3-.5 0-1.2-.6-1.6-.8-.5-.9-.3-.4.6.5.8.3 1.1-.6.8-.8-.3-1.4-1.3-1.4-2.4 0-1-.4-2.5-.8-3.1-.6-.9-.3-1.1.7-.7.8.3 1.7 1.1 1.9 1.7.2.7.2.2.1-1-.2-1.2 0-2.5.6-2.8 1.6-1 1.2-2.8-.5-2.2-.8.4-1.7.2-2.1-.4-.4-.6-1.2-.5-2.2.3-1 .7-1.4.8-1 .4.4-.5.2-1.6-.5-2.5-1.1-1.4-1-1.4.6-.2 1 .8 1.7.9 1.7.3 0-.6-.6-1.5-1.3-1.9-.8-.4-1.6-1.8-1.9-3.1-.4-1.2-.2-2 .3-1.6.5.3.9 1.2.9 2s.5 1.2 1 .9c1-.6-.3-3.4-3.5-7.8-1.1-1.6-1.7-1.7-3.7-.7l-2.3 1.2 2.3-2.1c1.2-1.2 2.2-2.7 2.2-3.3 0-.6-1.1-.1-2.5 1.2s-2.8 2-3.2 1.7c-.3-.4-.1-.7.5-.7s.9-.7.6-1.5c-.4-.8-.1-1.5.6-1.5.6 0 .8-.4.5-1-.4-.6-1.6-.4-3.1.6-2 1.4-2.3 1.4-1.9.2.4-.9 0-1.5-1-1.5-.9 0-1.4.6-1.1 1.3.7 1.9-1.2 2.8-2.9 1.4-1-.8-1.5-.9-1.5-.2 0 .6.5 1.4 1 1.7.6.3 1 1.1 1 1.8 0 .6-.6.2-1.4-.9-1.4-1.8-1.5-1.9-3.3 0-1.7 1.8-1.7 1.8.7 1.2 2-.5 1.9-.3-.5.8s-3.1 2.1-3 4.3c0 1.7.6 2.7 1.4 2.5.7-.1 1 .2.6.8-.5.8-1.2.7-2.2-.2-.9-.7-1.7-1.1-1.9-.8-.1.3-.6.2-1-.2s.1-1 1-1.4c.9-.3 1.6-1 1.6-1.6 0-.5-.4-.7-.9-.3-.5.3-1.3 0-1.7-.6-.4-.8-.3-.9.4-.5.8.4 1 .2.6-.7-.3-.8-.1-1.8.5-2.2.6-.3 1.1 0 1.1.7 0 1 .3.9.9-.2.6-.8.7-1.8.4-2.4-.4-.5-.1-.6.7-.1.9.5 1.1.4.6-.4-.4-.6-1.2-.9-1.7-.6-.5.4-.9.1-.9-.5s1.1-.8 2.5-.6c1.7.3 2.3.1 1.9-.6-.5-.7-.2-.8.5-.4.8.5 1.1.2.9-.9-.2-1 .4-2 1.2-2.2 1.3-.4 1.3-.3 0 .6-1 .7-1.1 1.1-.2 1.1.6 0 1.1.5 1 1.1-.2.6.3 1.4 1 1.6 1.1.4 1.2.1.2-1.7s-.9-2.1.1-1.5c.8.6 1 .4.4-.6-.5-.8-.5-1.1 0-.7.4.4 1.5.2 2.3-.5 1.2-.9 1.4-.9.9 0-.5.8-.1 1.1 1.3.8 1.1-.2 1.8 0 1.6.4-.3.4.1.8.9.8s1.5-.4 1.5-.9.5-.6 1.1-.2c.8.5.8.9-.1 1.4-.8.5-.8 1-.2 1.4.5.3 1.3-.2 1.7-1.1.3-1 .1-1.9-.4-2.1-.6-.2-.8-.9-.5-1.5.5-.8.2-.8-.7 0-1.7 1.7-3.7 1.7-2.1.1.7-.7 1.2-1.7 1.2-2.3 0-.5-.5-.3-1.1.5-.9 1.2-1 1.1-.6-.5.3-1.5-.1-2.1-1.5-2.1-1 0-2.1.2-2.3.5zm2.8 4.4c-.7 1.1-2.3-1.2-2.3-3.3.1-1.2.4-1.1 1.5.4.8 1 1.2 2.3.8 2.9zm-93 5.1c.9-.1 1.7.1 1.7.6 0 .4 1.3.7 3 .6 1.6 0 2.9.3 2.9.7 0 .4 1.6 2.4 3.6 4.3 3.9 4 4.2 4.6 2 3.8-.8-.4-1.5-1.1-1.5-1.7 0-.5-.8-.3-1.8.6-1 1-2.2 1.7-2.7 1.7s0-.7 1.1-1.6c1.9-1.5 1.9-1.6-.1-.9-3.7 1.2-5.5 1.4-6 .5-.3-.4.3-.7 1.2-.6 2.3.4 6.4-1.5 5.7-2.5-.3-.5-1.4-.5-2.4.1-2.4 1.3-3 1.3-3-.1 0-.5.4-.8.8-.5.4.2 1.3-.4 2-1.5.7-1 .8-1.9.3-1.9s-1.2.6-1.4 1.2c-.4 1-.8.9-1.6-.2-.6-.8-1.1-1.3-1.2-1-.6 3.4-.9 4.3-1.5 4.8-.4.4-.5 0-.2-.8.3-.9-.5-2.3-1.9-3.4l-2.5-1.8 1.6 3c1.6 3 1.1 4.8-.8 3.4-.6-.5-2.1-.3-3.5.4-2.2 1.1-2.2 1.2-.5 2.3 1.1.6 1.4 1.1.8 1.1-1.7 0-3.8-2.9-4-5.6-.1-2.3 2-3.9 3.6-2.9.5.3 1.4-.4 2.1-1.6.6-1.2 1.4-1.7 1.8-1.2.3.6 1.4.9 2.4.7zm91.2 2.6c.4.6-.1.7-1.1.3-1.3-.5-1.5-.3-.9.7.5.9.4 1.1-.4.6-.6-.4-.9-1.2-.6-1.7.8-1.2 2.2-1.2 3 .1zm1.9 4.2c-.3.4-1.1.5-1.9.1-2.1-.7-1.9-1.2.4-1 1.1 0 1.8.5 1.5.9zm6.9 2.4c-.7 2-1.4 1.8-1.1-.4.2-1.2-.3-1.6-1.7-1.4-1.6.2-1.7.1-.5-.7 1.8-1.2 4.1.5 3.3 2.5zM56.5 128c.3.5.1 1-.4 1-.6 0-1.1-.5-1.1-1 0-.6.2-1 .4-1 .3 0 .8.4 1.1 1zm87.5-.4c0 .8-1.9 1.3-2.4.6-.3-.5.1-.9.9-.9s1.5.2 1.5.3zm-89.5 4.3c-.9.8-3.6 1-3 .2.2-.4 1.1-.8 2-.8.8 0 1.3.3 1 .6zm18.5 4.6c0 .2-.7.1-1.7-.2-1.2-.5-1.4-.3-.8.8.5.8.4 1.1 0 .6-.5-.4-1-1.4-1.1-2.2-.2-1.2.2-1.2 1.7-.5 1 .6 1.9 1.3 1.9 1.5zm4.7 0c0 .8-.4 1.2-.9.9-.5-.3-.6-1-.3-1.5.9-1.3 1.2-1.1 1.2.6zm-2.2 3.7c.5.4 0 .6-1.2.6-1.3-.1-1.9-.7-1.6-1.5.3-.8.8-1 1.2-.6.3.4 1 1.1 1.6 1.5zm-25.2 3.3c-.3.9-.8 1.4-1 1.1-.3-.3-.2-.9.2-1.5.9-1.6 1.5-1.3.8.4zm2 20c-.3.9-.8 1.4-1 1.1-.3-.3-.2-.9.2-1.5.9-1.6 1.5-1.3.8.4zm-7.7 1.7c.5.7.3.8-.6.3-.8-.5-1.1-.3-.8.6.3.8 1.2 1.3 1.9 1.1.8-.1.7.4-.5 1.2-1 .8-1.5 2-1.1 2.6.6.9.2.9-1.2.1-1.1-.6-2.3-.7-2.7-.4-.3.3-.6.1-.6-.5 0-1.1 1.3-1.6 3.3-1.3 1.1.2.8-1.7-.4-2.5-.8-.4-.7-.9.2-1.5 1.8-1.1 1.7-1.1 2.5.3zm72.5 2c3.6-.2 5.9 0 5.6.5-.4.5 0 1 .8 1s1.2-.4.9-.9c-.3-.4-.1-.8.5-.8.5 0 1.3.5 1.7 1.1.4.7 1 .7 1.6.1.7-.7 1.9-.7 3.3-.2 1.3.5 2.6.6 2.9.3.3-.4.6-.2.6.3 0 .6 1.2 1 2.8.9 1.5 0 3.3.7 4 1.7 1.5 2 3.2 2.4 3.2.7 0-.5-.4-.8-.9-.4-.5.3-1.2.1-1.5-.4-.4-.5.1-.8 1-.7.8.1 1.9.8 2.4 1.5.4.8 1.3 1 1.9.7.6-.4 1.1 0 1.1 1.1 0 1.4.2 1.5.9.5.7-1.1 1-1 1.5.3.3.9.3 2.2-.1 2.7-.4.7-.1.8.6.4.7-.5 1-1.5.7-2.3-.4-1 .4-.7 2.4.7 1.7 1.2 2.8 2.6 2.4 3.1-.3.5-.2.8.3.7 1.7-.5 5.4 2.4 4.9 3.8-.3.8-.2 1.3.3 1 1-.7 4.5 4.3 3.7 5.1-.3.3.2 1.2 1.2 2 1 .9 1.1 1.2.2.7-1-.5-.9-.1.3 1.4 1.1 1.1 1.6 2.6 1.2 3.1-.3.6-.2 1.1.3 1.1 1.2 0 1.2 14.2 0 15.7-.5.6-1.7.9-2.6.6-1.4-.4-1.5-.3-.2.5.8.6 1.7.9 2.1.6.4-.2 1 0 1.3.5.4.5.2 1.2-.3 1.6-.6.3-.8 1.2-.5 1.9.3.8 0 1.7-.5 2.1-.6.3-.8 1.2-.4 1.8.4.7-.2.5-1.2-.3-1.7-1.4-1.8-1.3-1.2.2.3 1 .2 1.8-.3 1.8-.6 0-1-.2-1-.4s-.3-1.2-.7-2.2c-.4-1.1-.3-1.5.5-1 .6.3 1.3.2 1.7-.4.4-.6 1-.8 1.5-.5.5.3.8-.4.7-1.5-.1-1.8-.3-1.9-1.2-.6-1 1.3-1.4 1.3-3-.2-1.7-1.5-1.7-1.5-.6 0 .8 1.1.9 1.8.1 2.3-.5.3-1 .1-1-.4 0-.6-.5-1.1-1.2-1.1-.9 0-.9.3 0 1.2 1.9 1.9 1.4 3.2-.5 1.7-1.5-1.1-1.6-1.1-.5.1 1.7 2 1.5 3.5-.3 2-1.3-1.1-1.8-1-2.8.2-.7.9-1.9 1.8-2.7 2.2-.8.3-.2.4 1.4 0 2.6-.5 2.8-.3 1.7 1-.7.9-1.6 1.4-2 1.2-1.6-1-.8 3.5.8 4.6 2.6 1.9 2.3 4.5-.6 4.2-3-.3-5.8 3.3-4.1 5.4 1 1.1.9 1.3-.4 1-1-.1-2.4.6-3.2 1.7-.9 1.1-1.6 1.4-1.6.7 0-.6-.5-1.2-1.1-1.2-.5 0-.7.4-.4 1 .6.9-.8 1.4-2.7 1.1-.5 0-.8.4-.8 1 0 .5-.4.7-1 .4-.5-.3-1-.1-1 .6 0 .8-.5.7-1.7-.2-1.3-1.1-1.5-1.1-.9-.1.5.9.3 1.3-.5 1.1-.8-.1-2.1 0-2.9.4-.8.3-3.2.8-5.3 1.1-2.7.3-3.6.2-3-.7.5-.9.3-.9-.8-.2-.8.6-5.7 1-11.4.9-13-.2-13.7-.2-13.1-1.2.3-.5 0-.9-.7-1-4.2-.3-5.5-.7-5.1-1.4.3-.4.1-.8-.5-.8-.5 0-.8-.9-.6-2 .2-1.1-.2-2-.8-2-.7 0-.6-.4.3-1 1.3-.8 1.2-1-.4-1-1 0-1.6-.5-1.3-1.3.2-.6.1-2.1-.3-3.2s-.3-3 .1-4.3c.6-1.5.5-2.1-.1-1.7-1.3.8-1.3-.1.1-2.7.8-1.5.8-1.9 0-1.4-1.2.8-1.5-.7-.3-1.8.4-.4.7-1.1.8-1.4.2-1.8 2.8-6.1 3.4-5.7.4.3 1-.4 1.3-1.5.3-1.1.1-2.3-.4-2.6-.5-.3-.7-1-.4-1.5.4-.5.1-.9-.6-.9s-1-.3-.6-.6c.3-.4-.1-1.3-.9-2.1s-1.2-1.9-.9-2.4c.4-.5.2-.9-.3-.9-.6 0-.9-1.5-.8-3.4.1-1.9-.2-3.2-.6-3-1.1.7-1-.4.2-2.7.8-1.5.7-2.1-.4-2.5-.8-.3-1.3-1.4-1.1-2.4.2-1-.3-2.1-1.2-2.4-1.3-.5-1.3-.9-.2-2.3 1.2-1.4 1.2-1.6-.1-.8-1.2.7-1.3.6-.3-.7.7-.8 1-1.8.6-2.1-.3-.4-.1-.7.5-.7.7 0 1.1-.3 1.1-.8-.3-2 .2-3.3 1.1-2.7.6.4 1 .3.9-.2-.4-2.3.2-3.5 1.7-2.9.8.3 1.2.2.9-.4-.5-.9.3-1.2 2.5-1.2.3 0 1.4-.9 2.5-2.1 1.1-1.1 1.3-1.6.5-1.2-1.1.6-1.1.3.2-1 1-1.1 3.2-1.8 5.7-1.9 2.3-.1 4.1-.6 4.2-1.1 0-.6.2-.6.5 0 .3.7 2.9.9 6.5.7zM47 170c0 .5-.5 1-1.1 1-.5 0-.7-.5-.4-1 .3-.6.8-1 1.1-1 .2 0 .4.4.4 1zm2 6.3c0 .5-.7.6-1.6.3-1.2-.5-1.5-.2-1 1.1.6 1.4.4 1.5-.5.6-.6-.6-.9-1.5-.6-2 .8-1.3 3.7-1.2 3.7 0zm-2 7.7c0 .5-.4 1-1 1-.5 0-1-.5-1-1 0-.6.5-1 1-1 .6 0 1 .4 1 1zm1.3 2.5c-.3.9-.8 1.4-1 1.1-.3-.3-.2-.9.2-1.5.9-1.6 1.5-1.3.8.4zm3 6.2c-.3.7-.6 1.3-.8 1.3-.2 0-.5-.6-.8-1.3-.3-.8.1-1.4.8-1.4.7 0 1.1.6.8 1.4zm6.8.6c-1 .9-1.1.8-.5-.6.3-1 .9-1.5 1.2-1.2.3.3 0 1.1-.7 1.8zm-1.6 2.5c-.3.3.3 1.1 1.3 1.8.9.7 1.2 1.4.5 1.4-1 0-4.3-2.6-4.3-3.4 0-.1.7-.3 1.5-.3s1.3.3 1 .5zm5.9.1c-.8.8-3.4 1-3.8.2-.3-.4.6-.7 1.9-.7 1.4 0 2.2.2 1.9.5zm-12.2 2.6c.2-.3.5.1.5.9 0 1.1-.4 1.2-1.9.3-1-.7-1.8-1.6-1.8-2.1 0-.4.6-.3 1.3.3.8.6 1.6.9 1.9.6zm113.4 26c-.3 1 .1 1.5 1.2 1.6 1.4.1 1.4.2-.2.6-1.5.4-1.6.7-.5 1.4s1 .9-.5.9-1.6.3-.7 1.4c.9 1.1.9 1.6 0 2.2-.7.4-.9.3-.6-.3.4-.6 0-1.6-.7-2.2-1-.8-1.6-.9-2.1-.1-.3.5-.2 1 .2 1 .5 0 .9 1 1 2.2.2 2.1 0 2.1-1.3-.5-1.6-3-2.7-3.6-1.7-1 .5 1.5.4 1.6-.8.5-1.1-1-1-1.6.9-3.5 1.8-1.7 2.4-1.9 3.1-.9.7 1.1.9 1.1 1.4-.2.4-.9.3-1.5-.1-1.5-1.9.3-3.2-.2-3.2-1.2 0-.8.5-.8 1.5.1 1.2 1 1.6.9 2.1-.4.3-.9.8-1.6 1.1-1.6.3 0 .3.7-.1 1.5zm-8.4 15.3c.4 1.2-.1 1.8-1.3 1.8-1.4 0-1.5-.4-.8-1.8.5-1 1.1-1.8 1.3-1.8.2 0 .6.8.8 1.8zM52.5 260c.3.5.1 1-.4 1-.6 0-1.1-.5-1.1-1 0-.6.2-1 .4-1 .3 0 .8.4 1.1 1zm135.5.6c0 .8-.5 1.2-1 .9-.6-.4-.8-1.1-.5-1.6.9-1.4 1.5-1.1 1.5.7zm-17.7 2.9c-.7 2.1-1.2 1.9-1-.4 0-1.1.5-1.8.9-1.5.4.3.5 1.1.1 1.9zM51 264c0 .5-.2 1-.4 1-.3 0-.8-.5-1.1-1-.3-.6-.1-1 .4-1 .6 0 1.1.4 1.1 1zm125.5 0c.3.5.1 1-.4 1-.6 0-1.1-.5-1.1-1 0-.6.2-1 .4-1 .3 0 .8.4 1.1 1zm8-.1c.3.5.2 1.2-.3 1.5-.5.3-.9-.1-.9-.9 0-1.7.3-1.9 1.2-.6zm-136.1 2.3c-.5.7-.2.9.7.6 1-.4 1.5.1 1.5 1.3 0 1.1-.4 1.5-1.1 1-.5-.5-1.8-.7-2.8-.5-1.8.2-1.8.2-.1-1.7 1.9-2.1 2.9-2.5 1.8-.7zm112.1 2.8c.3.5.1 1-.4 1-.6 0-1.1-.5-1.1-1 0-.6.2-1 .4-1 .3 0 .8.4 1.1 1zm-106.3 6.3c-.7.8-.8 1.8-.4 2.2.4.5.2.5-.5.1-.6-.3-1.4-.2-1.8.4-.3.5-.2 1 .3 1 1 0 1 4.6-.1 5.6-.4.4-.7.2-.7-.5s-.5-.9-1.1-.5c-.8.4-.8.1 0-1.4.6-1.2 1-2.5.9-2.9-.3-.9 3.5-6.3 4.1-5.7.2.2-.1 1-.7 1.7zm8.3 2.6c-.3.6.3 1.4 1.2 2 1 .6 1.3 1.1.7 1.1-1.5 0-3.6-2.5-2.7-3.3 1-1 1.5-.8.8.2zm-1.1 10.8c.4 1.1.1 1.1-1.4.3-2.4-1.3-2.5-1.7-.5-1.7.8 0 1.6.6 1.9 1.4zm96.9 40.3c.3 1.1.1 1.8-.4 1.4-.5-.3-.9-1.2-.9-2 0-2 .7-1.7 1.3.6zm-1.3 7c0 .5-.6 1-1.2 1-.9 0-.9.3.1.9.8.5 1.1 1.6.8 2.6-.9 2.3-2.8.9-2.3-1.8.3-1.2.5-2.5.5-3 .1-1.1 2.1-.8 2.1.3zm3.7 3.5c0 2-.4 1.9-1.7-.5-.8-1.5-.8-1.8.3-1.4.8.3 1.4 1.1 1.4 1.9zm3.3 4.1c0 .8-1.9 1.3-2.4.6-.3-.5.1-.9.9-.9s1.5.2 1.5.3zm-3 2.6c0 .4-.4.8-.9.8-.6 0-1.2-.4-1.5-.8-.3-.5.1-.9.9-.9s1.5.4 1.5.9zm3 3.3c0 .5-.5.3-1-.5s-1-2-1-2.5c0-.6.5-.3 1 .5s1 1.9 1 2.5zm-3-.3c1.1 1.2 2 2.5 2 3 0 .4.5.8 1.1.8.5 0 .7-.6.3-1.3-.6-.9-.5-.9.7-.1.8.7 2.3 1.4 3.4 1.7 1.6.5 1.5.6-.5.5-4.3-.1-5.1.2-4.5 1.2.3.5 1.2.7 1.9.4.8-.3 1.7 0 2.1.6.6.9.9.9 1.5 0 .5-.8.9-.7 1.3.5.4.9.3 1.3-.2 1-.5-.3-1.2-.1-1.6.5-.3.5-.1 1 .5 1s.8.4.5 1c-.3.5 0 1 .7 1 .9 0 .9.3-.2 1-.8.5-1.9 1-2.5 1-.5 0-.4-.4.3-.9 1.1-.6 1-1-.3-1.5-1.4-.5-1.5-.9-.5-2.1 1-1.2.7-1.4-1.6-1.2-1.7.1-2.9-.3-2.9-1 0-1.3-1.3-2.7-2.6-2.9-.5-.1-1.3-.2-1.9-.3-.5 0-1-.6-1-1.2s.7-.9 1.5-.6c.8.4 1.7.1 2.1-.5.5-.7.2-.8-.6-.3-.9.5-1.1.4-.6-.4.4-.7.2-1-.5-.9-.6.2-1.4-.3-1.6-1-.7-2 1.4-1.4 3.7 1zm46 2.2c-1.6 2-2.6 2-3.4 0-.3-.8-.2-1.2.4-.9 1 .6 1.4-.8 1.1-3-.1-.6.5-.2 1.5.7 1.4 1.4 1.5 2 .4 3.2zm-39-1.8c0 .8-1.9 1.3-2.4.6-.3-.5.1-.9.9-.9s1.5.2 1.5.3zM56.7 365.5c0 .8-.4 1.5-.9 1.5-1 0-1.1-1.4-.1-2.3.9-1 1-.9 1 .8zm2.3 6.6c0 .7.7 1.7 1.5 2.3 1.1.8 1.2 1.5.4 2.6-.9 1.3-1 1.2-.5-.3.3-.9.1-1.7-.4-1.7-1.7 0-2 1.8-.5 3.3 1.2 1.3 1.2 1.6 0 2-1.9.8-4.2-2-2.7-3.5.6-.6.8-1.7.5-2.4-.4-1.2-.8-1.2-2.2-.2-1.1.8-1 .5.3-1 2.1-2.4 3.6-2.9 3.6-1.1zm117.6 2.8c1.9-.3 3.7.1 3.1.8-.4.3-.2 1.2.4 1.9 1.2 1.5 4.2.7 3.2-.9-.4-.6-.1-.7.7-.2 1 .6.9 1.1-.5 2.2-1.1.7-1.5 1.3-1.1 1.3.4 0 .4.5.1 1.1-.5.7-1.4.4-2.6-.7-1.5-1.3-1.9-1.4-1.9-.3 0 1.2-.2 1.2-.9-.1-1.1-1.6-.4-3.3 1-2.5.5.3.6-.1.2-1-.4-1.3-.8-1.4-1.4-.4-.6 1-1.1 1-2.3 0-.9-.8-1.6-1.8-1.6-2.3 0-.6.6-.6 1.4.1.8.6 1.8 1.1 2.2 1zM65 377.4c0 .2-.7.7-1.6 1-.8.3-1.2.2-.9-.4.6-1 2.5-1.4 2.5-.6zm19 .6c-.8.5-1.9 1-2.5 1-.5 0-.3-.5.5-1s2-1 2.5-1c.6 0 .3.5-.5 1zm-17.9 2.7c1.3 1.6 1.2 1.7-.3.4-1-.7-1.8-1.5-1.8-1.7 0-.8.8-.3 2.1 1.3zM186 380c0 .5-.5 1-1.1 1-.5 0-.7-.5-.4-1 .3-.6.8-1 1.1-1 .2 0 .4.4.4 1zm-107 2.4c0 .2-.8 1-1.7 1.7-1.6 1.3-1.7 1.2-.4-.4 1.3-1.6 2.1-2.1 2.1-1.3zM60.7 385c-.2 2.4-1.2 2.6-2.1.4-.3-.8-.2-1.2.4-.9.6.3 1 .1 1-.4 0-.6.2-1.1.4-1.1.3 0 .4.9.3 2zm14.3.4c0 .3-.4.8-1 1.1-.5.3-1 .1-1-.4 0-.6.5-1.1 1-1.1.6 0 1 .2 1 .4zm124.4 3.5c-.2.2-1-.1-1.7-.7-.8-.7-1.8-.8-2.3-.4-.4.4-.2-.1.5-1.1 1.3-1.6 1.4-1.6 2.6 0 .8 1 1.2 2 .9 2.2zm-123.6 2.7c.4-.2 1.2.2 1.8.8.9 1 .3 1.2-3 1.1-3-.1-4-.5-3.7-1.6.2-.8.3-2.3.3-3.4-.1-1.7.2-1.6 1.9.8 1.2 1.5 2.4 2.5 2.7 2.3zm10.2-3c0 .8-.5 1.2-1 .9-.6-.4-1.7-.3-2.3.2-.7.4-.4 0 .6-1 2.4-2.1 2.7-2.1 2.7-.1z"/><path d="M58.7 121.1c.7.7 1.5 1 1.8.7.3-.3-.2-.9-1.2-1.2-1.4-.6-1.5-.5-.6.5zM54.3 122.2c-.4.7-1.4 1.3-2.2 1.3-.8 0-1.5.8-1.7 1.7-.2 1.6 0 1.6 2.5.3 2.2-1.1 3.1-1.1 4-.2 1 .9 1.1.8.6-.6-.4-.9-1.1-1.7-1.7-1.7-.5 0-.6-.5-.3-1 .3-.6.4-1 .1-1-.3 0-.9.6-1.3 1.2zM137.5 172c.3.5.8 1 1.1 1 .2 0 .4-.5.4-1 0-.6-.5-1-1.1-1-.5 0-.7.4-.4 1zM142.9 175.7c-1.3 1.6-1.2 1.7.4.4 1.6-1.3 2.1-2.1 1.3-2.1-.2 0-1 .8-1.7 1.7zM147.6 177.8c-.3.5.1.9.9.9s1.2-.4.9-.9c-.3-.4-.7-.8-.9-.8-.2 0-.6.4-.9.8zM168.6 211.3c.3 1 .9 1.5 1.2 1.2.3-.3 0-1.1-.7-1.8-1-.9-1.1-.8-.5.6zM159.5 215c-.8 1.3.3 3 1.8 3 .8 0 .7-.3-.2-.9-.7-.5-1-1.4-.7-2 .4-.6.5-1.1.2-1.1s-.8.4-1.1 1zM164.7 216.1c.7.7 1.5 1 1.8.7.3-.3-.2-.9-1.2-1.2-1.4-.6-1.5-.5-.6.5zM156.3 220.2c-.9 1.6-1.6 5.4-.7 4.6.3-.3.7-1.4.8-2.3.1-.9.9-2.1 1.7-2.6.9-.5 1-.9.2-.9-.6 0-1.5.6-2 1.2zM151.5 233c-.3.5-.1 1 .4 1 .6 0 1.1-.5 1.1-1 0-.6-.2-1-.4-1-.3 0-.8.4-1.1 1zM154.5 233.9c.3.6.1 1.2-.4 1.2-.6.1-1.5.2-2 .3-.6 0-1.6.7-2.3 1.5-1.1 1.2-1 1.2.2.5.8-.5 2.7-.9 4.3-1 3.7-.2 4-.7 1.5-2.3-1.1-.7-1.7-.8-1.3-.2zM161 351.9c0 .6.4 1.3 1 1.6.6.3.7-.1.4-.9-.7-1.8-1.4-2.1-1.4-.7zM179 378.4c0 .2.8 1 1.8 1.7 1.5 1.3 1.6 1.2.3-.4s-2.1-2.1-2.1-1.3zM72.4 390.9c.4.5 0 1.1-.6 1.4-.7.3-.3.4.9.4 1.7-.1 1.9-.4 1.1-1.4-1.2-1.5-2.2-1.8-1.4-.4zM423 110c0 .5.7.7 1.5.4.8-.4 1.5-.8 1.5-1 0-.2-.7-.4-1.5-.4s-1.5.4-1.5 1zM427.6 110.2c.3.5 1 .6 1.5.3 1.3-.9 1.1-1.2-.6-1.2-.8 0-1.2.4-.9.9zM413.3 111.6c0 .7.4 1.1.9.8.4-.3.8 0 .8.5 0 .6.5 1.1 1 1.1 1.6 0 1.2-1.4-.8-2.7-1.5-.9-1.9-.8-1.9.3z"/><path d="M421.3 112.4c0 1.4.4 2.9.8 3.2.5.3.7.9.4 1.3-.2.5.7.7 2 .5 1.4-.1 2.5.2 2.5.7 0 .5.3.8.8.8 1.9-.3 3.3.2 2.7 1.1-.4.6.1.7 1.2.4 1.4-.4 1.5-.3.4.4-.9.7-1 1.2-.2 1.6 1 .6 1.5-.6 1.2-2.7 0-.4.4-.7 1-.7.8 0 .8-.4-.1-1.5-1-1.2-.7-1.4 1.8-1 2.9.3 3.8-1.2 1.8-3.2-.4-.4-.6-.1-.4.7.2 1-.5 1.5-1.9 1.5-1.1 0-2.5.3-2.9.7-.4.5-1.1.8-1.6.8-.4 0-.7-.3-.7-.8.4-2.4-.2-3.5-1.3-2.4-.7.7-1.7.8-3 .1-1-.5-1.8-.6-1.8-.2-.1.4-.7-.3-1.4-1.6l-1.3-2.4v2.7zm3.7 2.7c0 .4 1.1.6 2.3.3 1.6-.2 2.4.1 2.4 1.1 0 .8-.4 1.2-.9.9-.4-.3-1.8-.7-3-.9-2.7-.6-4.4-2.2-2.3-2.2.8 0 1.5.4 1.5.8zm8 2.9c0 .5-.5 1-1.1 1-.5 0-.7-.5-.4-1 .3-.6.8-1 1.1-1 .2 0 .4.4.4 1zM132 112c-.9.6-1 1-.3 1 .6 0 1.5-.5 1.8-1 .8-1.2.4-1.2-1.5 0zM135.5 111.9c-.3.5-.2 1.2.3 1.5.5.3.9-.1.9-.9 0-1.7-.3-1.9-1.2-.6zM140.7 112.1c.7.7 1.5 1 1.8.7.3-.3-.2-.9-1.2-1.2-1.4-.6-1.5-.5-.6.5zM158.1 112.6c0 1.1.3 1.4.6.6.3-.7.2-1.6-.1-1.9-.3-.4-.6.2-.5 1.3zM418.9 112.2c0 .7-.2 2.3-.3 3.5-.2 1.3.2 2 .8 1.6.7-.4.6-.1-.1.7-.8.9-1.6.9-3 .1-1-.6-1.2-1.1-.5-1.1.6 0 1.2-.5 1.2-1.2 0-.6-.3-.8-.7-.5-.3.4-1.1.3-1.7-.2-1.5-1.1-4.6-2.2-4.6-1.5 0 .2 1.2.9 2.6 1.4 1.4.6 2.3 1.4 2 1.9-.7 1 2 4.1 3.4 4.1.5 0 1.6-1 2.4-2.2 1.4-1.9 1.4-2.3.2-3-.8-.5-1.2-1.6-.9-2.8.3-1.1.3-2-.1-2-.3 0-.6.6-.7 1.2z"/><path d="M425.5 112c.3.5 1.1 1 1.6 1 .6 0 .7-.5.4-1-.3-.6-1.1-1-1.6-1-.6 0-.7.4-.4 1zM405 114c0 .5.5 1 1.1 1 .5 0 .7-.5.4-1-.3-.6-.8-1-1.1-1-.2 0-.4.4-.4 1zM71.6 115.3c.3 1 .9 1.5 1.2 1.2.3-.3 0-1.1-.7-1.8-1-.9-1.1-.8-.5.6zM66 116c-1.2.7-1 .9.7.7 1.2 0 1.9-.5 1.7-.9-.6-1-.6-1-2.4.2zM162 116c0 .6.7 1 1.5 1s1.5-.2 1.5-.4-.7-.6-1.5-1c-.8-.3-1.5-.1-1.5.4zM411.5 117c-.3.5-.4 1.4 0 1.9.3.5.1 1.2-.5 1.6-.5.3-1-.2-1.1-1.2 0-1.1-.3-1.3-.6-.5-.2.6-1 .9-1.6.6-.7-.3-.2.3 1.1 1.3 2 1.6 2.1 2.1.9 3.1-.7.7-1.7.9-2 .5-.4-.3-.7-.1-.7.6 0 .8.7 1.1 1.5.7 1.7-.6 6.5 1.3 6.5 2.6 0 .4-.3.7-.7.7-2.6-.4-3.4.3-2.8 2.3.4 1.6.3 1.9-.3.9-.6-.8-1.2-.9-1.6-.3-.3.6-.2 1.3.4 1.7 1.6 1 .1 2.5-1.7 1.8-1.1-.4-1.4-.3-.9.5.5.8.2 1-.9.6-1-.4-1.5-.2-1.3.7.2.9-.8 1.5-2.7 1.7-2 .2-2.6 0-1.7-.6 1.1-.7 1-1-.3-1.6-.9-.3-1.4-1-1.1-1.5.3-.5-.1-1.4-.9-2.1-1.1-.9-1.5-.9-1.5-.1 0 .7-.4 1-.8.7-.5-.3-1.9.4-3 1.5-1.2 1.1-2.2 1.6-2.2 1.2 0-.4-.5 0-1.1.9-1.1 1.9-4.9 2.5-4.9.7 0-.5-.4-.7-1-.4-.5.3-1-.1-1-1s-.4-1.3-1-1c-.5.3-1 .2-1-.3 0-.6-.9-.8-2-.5-1.1.3-2 1-2 1.5s-.4.7-.8.4c-.4-.2-.8.4-.8 1.5 0 1 .5 1.9 1 1.9s.1.7-1 1.5c-1.9 1.5-1.9 1.5.1.8 1.1-.3 1.7-.3 1.3.2-.4.4-.3 1.6.2 2.6.7 1.2.6 2-.2 2.5-.6.4-.8.3-.4-.4.3-.6.2-1.3-.3-1.6-1.1-.7-.9 1.3.3 3.3.7 1 .3 1.2-1.5.7-2-.6-2.1-.5-.6.4 1.3.9 1.5 1.5.7 3.1-1.2 2.1-4.5 2.6-5.6.7-.5-.7-.3-.8.6-.3.9.5 1.1.4.6-.4-.4-.6-1.2-.8-1.8-.5-.6.4-1.4 0-1.9-.7-.6-1-.9-1.1-.9-.2 0 .7-.6 1.3-1.4 1.3-.8 0-1.8.5-2.2 1.2-.5.7-.2.8.7.3 1.1-.6 1.2-.5.2.6-.7.7-1.3 2.1-1.3 3.2s-.4 1.5-1.1 1.1c-.8-.5-.9-.2-.1 1.2s.6 2.1-.6 3.1c-1.4 1-1.4 1.2-.3 1.3 1.1 0 1 .4-.5 1.6-1 .8-1.3 1.3-.6.9.6-.3 1.2-.1 1.2.4 0 .6-.3 1.1-.8 1.1-.4 0-1.3.9-2 2.1-.8 1.2-.9 1.8-.3 1.5.7-.4.8-.1.5.8-.3.9-1.1 1.3-1.8.9-.6-.4-.4.2.4 1.2s1 1.6.4 1.2c-.7-.4-1.4 0-1.8.8-.3.8-.1 1.7.4 2 1.3.8-1.2 3.5-2.5 2.7-.5-.3-.5.1.2.9 1 1.2.8 1.7-.9 2.8-1.1.7-1.7.8-1.3.2.3-.6.1-1.1-.4-1.1-.6 0-1.1-.7-1.1-1.6 0-.8-.4-1.2-1-.9-.5.3-1 .2-1-.3s-1-1.3-2.2-1.9c-1.8-.7-2.7-.5-4 .9-1.2 1.2-1.4 1.8-.5 1.8.8 0 .7.4-.3 1-.8.5-1.1 1-.7 1 .4 0 .2 1-.4 2.2-.7 1.3-1.3 3.6-1.4 5.2-.1 1.6-1.1 3.7-2.3 4.6-1.2 1-1.8 2.1-1.4 2.5.4.4-.3.5-1.5.2-1.3-.3-2.3-.1-2.3.4 0 .4-.6.6-1.4.3-.9-.3-1.7.3-2.1 1.6-.9 2.9-4.6 7.1-5.7 6.4-.4-.3-.8-.1-.8.5s-.7.8-1.5.4c-.9-.3-1.5-.2-1.4.3.4 1.5-1.3 6.4-2 6-.3-.2-.6 1.6-.7 4.1 0 2.7-.6 4.8-1.5 5.4-.8.4-1.4 1.4-1.4 2.1-.1.7-.6 1.2-1.3 1.1-.7-.2-1.1.3-.9 1 .1.6-.5 1.1-1.3.9-.8-.2-1.2 0-.8.3 1.3 1.3-1.1 4.5-3 3.9-1.3-.5-1.4-.4-.3.4 1.6 1.2.5 3.5-1.2 2.5-.9-.5-.9-.3 0 .8.7.9.8 2 .3 2.9-.5.8-.7 1.7-.4 2.1.2.5-.5.6-1.7.4-1.8-.4-1.9-.2-.7 1.2 1.1 1.5 1.1 1.6-.4 1-1.5-.5-1.6-.2-.8 1.9.6 1.5.6 2.3.1 1.9-.5-.3-1.2.4-1.6 1.5-.3 1.1-1.1 2-1.6 2-1.4 0-1.1-1.6.6-3 .8-.7 1.5-1.7 1.5-2.2 0-.6-.9 0-2.1 1.3-1.9 2.3-2 2.3-1.4.3.3-1.3 0-2.4-.7-2.7-2.1-.7-2.8-.7-2.8 0 0 .5.4.8.9.8s1.3.3 1.7.8c.4.4-.4.6-1.9.5-1.4-.1-2.4-.5-2.1-.9.2-.4-.2-1-.8-1.2-1-.4-1-.6 0-.6.7-.1 1-.6.6-1.3-.5-.7-.3-.8.6-.3 1 .6 1.2.2.7-1.5-.3-1.3-.1-3 .5-3.7.9-1.1.7-1.2-.8-.6-1.7.6-1.8.5-.4-1.2.8-1 1-1.6.4-1.2-.7.4-1.4 0-1.8-.8-.6-1.7 1-3 1.7-1.5.3.6.4.5.3-.2-.2-.7-.9-1.3-1.6-1.3-.7 0-1.5-.6-1.8-1.4-.3-.9 0-1.1.9-.5 1.2.6 1.2.5.1-.8-1-1.3-1-1.7.4-2.2.9-.3 2.1-.3 2.6.1.7.3.8.1.4-.5-.4-.7-.1-1.2.8-1.2s1.5-.3 1.5-.8c-.4-2.5.2-4.2 1.4-3.6.9.6.9.4.1-.7-.5-.8-.9-2.9-.9-4.7.1-1.7-.2-3.2-.7-3.2-.4 0-.8-.5-.8-1.1 0-.5.6-.7 1.3-.3.9.6.9.5 0-.7-1.9-2.3-2.6-8.1-1.1-9 1-.7.9-.9-.3-.9-.9 0-1.6-.7-1.6-1.5 0-1 .6-1.4 1.6-1 1.1.3 1 0-.3-1s-1.5-1.5-.6-1.5c1.1 0 1.1-.2-.1-1.3-.8-.6-2.2-2.1-2.9-3.2-1.3-1.8-1.3-1.9 0-1 .9.5.8.3-.2-.7-2.2-2-2.3-2.7 0-4.4 1.6-1.2 1.5-1.3-.5-.9-1.3.2-2.3 0-2.3-.6 0-.5.9-.9 1.9-.9 1.1 0 2.3-.5 2.7-1.2.5-.8.2-.9-.9-.5-.9.3-1.9.2-2.2-.3-.4-.6 0-1 .8-1 .9 0 1.3-1 1.2-3-.1-1.6.1-2.7.4-2.5.9.5 4.5-2.4 3.8-3.1-.3-.4 0-1.3.8-2.1 1.1-1.1 1.2-1.9.4-3.4-1-1.9-2.9-1.8-2.9.2 0 .6.4.8.9.4.5-.3 1.3-.1 1.6.5.4.6.1.9-.7.8-.7-.2-1.2.3-1.1.9.2.7-.3 1.3-1 1.3-.9 0-.9.2.1.9 1.1.7 1.1.9-.1 1.4-1.2.4-1.4 0-1.1-1.9.3-1.9.1-2.3-.8-1.8-.6.4-.2-.7 1-2.4 2.2-3 5.3-5.8 3.8-3.4-.8 1.3.4 1.5 2.8.6.8-.3 1.2-1.2.9-2-.4-1 0-1.3 1.3-.8 1.8.5 1.8.5.2-.6-1.5-.9-1.6-1.4-.6-3 .7-1 1.6-1.7 2-1.4.4.3.5-.2.2-1.1-.4-.8-.1-2.1.5-2.9.6-.7.8-1.5.6-1.8-.3-.3-1-2-1.5-3.8-.8-2.6-.7-3.1.6-2.6 1.2.4 1.2.2.4-1.4-.8-1.5-.6-2.4 1.2-4.1 1.3-1.2 1.7-1.9 1.1-1.5-.8.5-1.3.1-1.3-.9 0-.9-.4-1.3-1-1-.5.3-1 .1-1-.5 0-.8-.6-.7-2.1.1-1.5.7-1.9.8-1.5 0 .5-.7.1-.9-.8-.5-.9.3-1.3 1-1 1.5.3.5-.3.6-1.2.2-1.3-.5-1.6-.2-1.2.9.4.8.1 1.5-.8 1.5-.7 0-1-.5-.7-1.1.4-.6-.1-.5-1.1.3-1.4 1.2-1.9 1.2-2.9.1-.9-1-.9-1.1.1-.6 1.4.8 1.7-1 .3-1.8-1.7-1.1-2 2.3-.4 4 1.6 1.6 1.5 1.6-.6.9-1.8-.5-2.2-.4-1.5.6.4.8-.3.5-1.7-.6s-2.6-2.4-2.6-2.9c-.1-1-2.3-2.6-3.6-2.6-.4 0-.3 1 .4 2.1.8 1.5.8 1.9 0 1.5-.6-.4-1.1-.2-1.1.4 0 .6-.4.8-1 .5-.5-.3-1 .1-1 .9 0 .9-.5 1.6-1 1.6-.7 0-.7-.6 0-2 .6-1.1 1.5-2 2-2 1.9 0 1-1.6-1-1.7-1.1-.1-1.8.2-1.6.6.3.4-.2 1.7-1 2.7-1.3 1.6-1.5 1.6-1 .2.5-1.7-1.5-4.2-2.7-3.3-.4.3-.4.2-.1-.2.3-.5 1.5-.8 2.7-.8 1.3-.1 2.1-.6 1.9-1.4-.1-.7.3-1.9.9-2.7.6-.8.7-1.4.2-1.4-.5 0-1.5 1-2.2 2.3-.7 1.3-2.2 2.4-3.3 2.4-1.5.2-1.8-.1-1-.9.7-.7.4-1.6-.9-2.9-1-1-1.9-2.5-1.9-3.2 0-.8.4-.7 1.1.3.8 1.2 1 1.2.7.1-.2-.8-1.2-1.5-2.1-1.7-.9-.1-1.5.2-1.1.7.8 1.3-1 1.1-2.5-.4-1.1-1-1.2-.9-.7.1.4.7.3 1.9-.3 2.6-.7.8-1 2-.9 2.7.2.8-.2 1.3-.8 1.2-.6-.1-1.1.5-1.1 1.3s.3 1.4.6 1.4.6 1.3.7 3c.1 1.6-.3 2.7-.7 2.4-1.3-.8-1.1 1 .4 2.5.9 1.1.9 1.3 0 .7-.7-.4-1.3-.2-1.3.3 0 .6.5 1.1 1 1.1.6 0 1 .5 1 1.1 0 .5-.4.8-.8.5-.5-.3-.9.2-.9 1s.6 1.3 1.2 1c.6-.2 1.2.2 1.2 1s-.5 1.3-1.2 1.1c-.6-.3-1.1.8-1.1 2.8 0 2.4.4 3.1 1.4 2.7.8-.2 1-.8.5-1.1-1.5-1.1-1.3-3 .3-2.4.8.3 1.2.8.9 1.1-.3.3.2 1.3 1.1 2.3 1 1.1 1.2 1.9.5 2.4-.6.3-1.1 1.6-1.1 2.8 0 1.8-.2 1.9-1 .7-.6-.9-1-1-1-.3 0 2.1 1.8 2.4 3 .6 1.1-1.7 1.1-1.7.5.1-.3 1.1 0 2.3.7 2.8.8.5.1.6-1.7.3-3-.6-3-.6-.6.8 2 1.2 2.1 1.5.7 2-.9.4-1.6.2-1.6-.2 0-.5-.6-1.1-1.3-1.4-.7-.3-1.3.3-1.3 1.3 0 1.3.7 1.6 3.1 1.4 1.6-.1 2.4 0 1.8.3-2.1.8-1.5 2.7 1.7 5.8 2.3 2.2 2.7 3.2 1.9 4.2-.6.7-.8 1.3-.4 1.3.5 0 .1.8-.8 1.8-1 1-1.4 2.2-1 2.7.5.4.2.5-.4.1-.7-.4-1.3-.2-1.3.4 0 .6-.5.8-1.2.4-.7-.5-.8-.3-.3.6.4.7.4 1.5-.1 1.9-1.6 1.1-3.1 4.6-2.9 6.8.1 1.3-.2 2.3-.6 2.3-.4 0-.6 1-.3 2.3.2 1.3.5 4 .6 5.9.2 2 .8 3.6 1.3 3.5.6-.1.9.8.9 2-.1 1.3.1 2.3.5 2.3.3 0 .7 1.2.8 2.7.3 5.3 1.1 10.8 1.8 12.5.4.9.4 2.2 0 2.8-.3.5-.1 1 .6 1 .8 0 .7.5-.2 1.7-.8 1-.9 1.4-.2 1 .6-.4 1.4-.3 1.8.3.3.5.1 1-.6 1-.8 0-.9.3 0 1.4.9 1 .8 1.6-.3 2.5-1.7 1.4-1 4.4.8 3.4.6-.4-.4.7-2.1 2.4-1.8 1.7-3.3 3.5-3.3 4 0 .4.7 0 1.4-1 1.1-1.4 1.6-1.5 2.2-.5 1.1 1.7 1.3 4.8.3 4.2-.4-.2-1 0-1.4.6-.3.5-.2 1 .4 1 1 0 .9 1.9-.3 3.8-.4.7-1.7 1-2.9.7-1.9-.5-1.9-.4.3.9 1.4.9 2 1.5 1.3 1.6-.7 0-1 .7-.6 1.7.4 1.1.3 1.4-.5.9-.8-.5-1-.2-.6.8.3.9 1.1 1.3 1.8.9.6-.3.6-.1-.1.8-1.8 1.8-1.6 3.2.2 2.5 1.3-.5 1.4-.2.4 1.5-.7 1.3-.7 1.9-.1 1.5.6-.3 1.4-.1 1.8.5.4.8.3.9-.4.5s-1.2-.2-1.2.4c0 .6-.4.9-.8.6-.5-.3-.9.1-.9.9s.4 1.5.9 1.5c.4 0 .8-.5.8-1 0-.6.5-1 1.2-1 .6 0 .8.3.5.7-.4.3 0 1.7.8 3 .9 1.3 1.1 2.3.5 2.3-.5 0-1 .8-1 1.8 0 1.1-.9 2.7-2 3.7s-1.7 2.2-1.3 2.8c.4.7 0 .8-1.2.3-1.5-.5-1.6-.4-.6.8.8.9.8 1.6.2 2-.5.4-.8 1.5-.6 2.6.2 1.1 0 2-.5 2s-.6.7-.3 1.7c.5 1.2.3 1.4-.8.8-1.2-.8-1.2-.6 0 .8 1 1.3 1 1.7.1 1.7-1 0-1 .3 0 1.5s1 1.5-.1 1.5c-1 0-1 .3-.3.8.6.4 1 1.5.8 2.5-.1.9.2 1.5.7 1.1.5-.3.9.3.9 1.3s.8 2.5 1.9 3.2c1.7 1.3 1.7 1.6.3 5.2-.8 2.1-1.9 3.6-2.4 3.3-.6-.4-.5.4.2 1.6.7 1.2.8 2 .2 1.6-.5-.3-.9.6-.9 2 0 1.5-.6 3-1.3 3.4-.9.6-.9.9.1 1.2 1.2.4 1.2.8 0 2.2-1.3 1.5-1.2 1.8.7 2.2 1.4.4 1.9 1.1 1.5 2.2-.4.8-.2 1.3.3 1 .5-.4.9 1 .8 3 0 2.1.3 4.4.7 5.2.9 1.8-.7 4.2-3.9 5.9-1.7.9-2.1 1.6-1.3 2.5 1.1 1.3.5 2.6-1.1 2.6-.5 0-.6-.6-.2-1.3.4-.6.3-.8-.1-.4-.5.4-.8 2.8-.6 5.2.1 2.7-.2 4.5-.8 4.5-.6 0-1.1.5-1.1 1.2 0 .6.9.3 2.1-.8 1.1-1 1.9-1.4 1.8-.9-.5 1.7 1.2 5.6 2.1 5 .5-.3 1.2 0 1.6.6.4.8.3.9-.4.5s-1.2-.1-1.2.9c0 .9.4 1.4.9 1 1-.5 3.4 2.8 2.7 3.6-.2.2.2 1 1 1.7.9.8 1.4.9 1.4.2 0-.6.5-.8 1.1-.4.8.5.6 1-.5 1.6-.9.5-1.6 1.4-1.6 1.9 0 .6.5.7 1.2.3.7-.4.8-.3.4.4s-.2 1.2.3 1.2c.6 0 1.1-.7 1.1-1.5s.4-1.5.8-1.5c.5 0 .9.7.9 1.5s-.4 1.5-.9 1.5-.6.5-.3 1c.5.8 1.1.8 1.9.1.7-.6 1.7-.7 2.1-.3.5.4.5-.2.1-1.3-.6-1.6-.5-1.7.5-.8 1 1 .9 1.5-.1 2.7-.7.9-1.6 1.3-2.1 1-.5-.3-.9.2-.9 1.1 0 .9.5 1.3 1.1.9.7-.4.9 0 .5 1.4-.8 2.5 2.9 5.1 4.7 3.3 1.7-1.7 3.1-1.3 1.6.5-1 1.3-1 1.7.1 2.4.7.4 1.9.6 2.7.3 1.1-.4 1-.8-.3-1.8-1.2-.8-1.4-1.4-.6-1.9.7-.4 1.2-.2 1.2.3 0 .6.5 1.1 1.1 1.1.5 0 .7-.4.4-1-.3-.5-.1-1 .4-1 .6 0 1.1.6 1.1 1.2 0 .7.5.5 1.1-.5.6-.9 1.3-1.6 1.7-1.3.4.2 1.5-.6 2.4-1.9 1.6-2.1 1.6-2.2-.7-2-1.3.2-3.1-.5-4.1-1.6-1.7-1.9-1.7-2 0-1.3 1.6.6 1.7.5.6-1.5-.6-1.3-.9-2.5-.7-2.8.3-.2.8.5 1.2 1.6.3 1.2 1.1 1.9 1.6 1.5.6-.4.6-1-.1-1.9-.7-.9-.6-1.6.7-2.6 1.1-.9 1.4-1 .9-.2-1 1.7.6 1.6 3-.1 1.9-1.4 1.9-1.4-.1-1.3-1.5.2-2-.5-2.2-2.3-.1-2.2-.1-2.2.4-.3.6 2.8 2.3 3 2.3.3 0-1.1 1.1-2.7 2.5-3.6 1.4-.9 2.3-1.9 2.1-2.3-.3-.4 0-1.3.6-2.1.8-1.2.9-1.2.4.2-.3 1-.1 1.8.4 1.8.6 0 1-.7 1-1.6 0-.8.4-1.3 1-.9.5.3.7 1.2.3 2-.8 2.3.3 1.8 2.1-1 1.3-2 1.4-3 .5-4.7-.9-1.8-.9-2 .4-1.5 1.8.7 2.9-1.6 2-4-.4-.9-.2-1.4.3-1.1.5.4 1.8 0 2.9-.8 1-.8 1.4-1.4.9-1.4-.6 0-1.5.5-2.2 1.2-2.6 2.6-1.1-1.1 1.7-4.1 2.7-2.9 3-4.6.3-1.9-.9.9-1.2.9-1.2 0 0-.6 1.2-1.8 2.6-2.5 2.2-1.2 2.4-1.5 1-2-1.1-.5-1.5-.3-1 .4.4.7.1 1-.6.7-.7-.2-1.5-1.5-1.7-2.7-.3-2.1-.2-2.2 1.4-1 1.6 1.3 1.7 1.2.4-.4-1.2-1.5-1.1-1.7.2-1.7.8 0 1.7.3 2 .7.2.5.2.1-.1-.7-.6-2.1-.6-3.2.1-6 .6-2.1.5-2.1-.7.4-.9 1.9-1.6 2.5-2.1 1.7-.4-.7-.3-1.7.3-2.3.6-.6.8-1.7.5-2.4-.3-1 0-1.2 1-.8.8.3 1.8.1 2.2-.5.4-.7 0-.8-1.1-.4-1.3.5-1.5.3-.9-.8.7-1.2.6-1.2-.7-.1-1 .8-1.9.9-2.2.3-.4-.5.3-1.3 1.5-1.6l2.1-.7-2.1-1.5c-1.2-.8-1.9-1.8-1.6-2.3.3-.4-.1-.7-.7-.6-.7.1-1.4.5-1.5 1-.1.4-.9 1.3-1.8 1.9-1.4 1.1-1.4 1.4 0 3.4.9 1.2 2.2 2 2.9 1.7 1.1-.4 1.4.4 1.1 3.5-.2 2.3.1 3.9.5 3.6.5-.3 1.2 0 1.6.6.4.7.3.9-.3.6-.6-.4-1.4 0-1.7.9-.4.9-.9 1.4-1.3 1.1-.3-.4-1.2-.2-2 .4-.9.9-1.3.8-1.3 0 0-.6.5-1.1 1.1-1.1.6 0 .9-.6.6-1.3-.2-.6-1-1.1-1.6-.9-.7.1-1-.2-.6-.8.5-.8 1.1-.8 2 0 .9.8 1.5.8 2 0 .3-.5.1-1-.5-1s-.8-.5-.3-1.3c1.5-2.5 1.2-4.3-.4-2.2-.9 1.2-1.4 1.4-1 .5.6-1.9-2.7-6.2-3.9-5.2-.5.4-.3 0 .4-.9.6-.9.8-2 .4-2.4-.4-.5-.1-.5.6-.1 1.8 1 1.5-1.9-.3-3.4-1.1-.9-1.2-1.6-.5-2.5.7-.9.7-1.5.1-1.9-.5-.4-1.2.3-1.6 1.4-.3 1.1-1.1 2-1.6 2-1.3 0-1.1-.9.6-2.6 2.1-2.2 1.9-2.9-1-3-1.6-.1-2.5.3-2.5 1.3 0 .8.5 1.1 1.2.7.7-.4.8-.3.4.4-.4.6-1.3.9-2.1.6-.8-.4-1.3-1-1-1.4.8-1.2-.6-4.1-1.6-3.4-.5.3-.6-.2-.3-1.1.5-1.1.2-1.4-1-.9-.9.3-1.6.1-1.6-.6 0-.6.5-.8 1.1-.4.7.4 1 .1.7-.7-.3-.8-1-1.3-1.5-1.2-.5.1-.9-1.2-.8-2.9.1-2.2.8-3.5 2.3-4.1 1.2-.6 2.2-1.6 2.2-2.3 0-.7.4-1.6 1-1.9.7-.4.7.3 0 1.9-.5 1.4-.7 2.6-.4 2.6 1.2 0 2.1-4.6 1.2-6.4-.8-1.4-.7-1.7.3-1.1.9.6 1.1.3.6-.8-.3-.9-.1-1.9.5-2.3.7-.4.6-.9-.3-1.5-1.1-.7-1.1-.9.1-.9.9 0 2.2.6 3 1.2 1.2 1.1 1.2 1 .1-.4-.7-1-1.1-2.4-.8-3.3.4-.8.2-1.7-.4-2.1-.6-.4-.6-1.1.2-2 .9-1.1.8-1.4-.2-1.4-.7 0-.3-.7.9-1.6 1.3-.9 3-1.3 3.8-1 .8.3 1.7-.1 2-.9.4-1 1.1-1.2 2.2-.6s2.1.2 3.5-1.5c1-1.3 2.5-2.4 3.3-2.4.8 0 1.4-.5 1.4-1.1 0-.5-.4-.8-.8-.5-.4.2-.9-.4-.9-1.6-.1-1.3.3-1.8 1.2-1.4.7.2 1.6.2 1.8-.2.2-.4.2-.2.1.5-.2.6.2 1.4.9 1.7.9.3.9.5 0 .5-.7.1-1.3.6-1.3 1.2 0 .5.5.7 1.2.3.7-.4.8-.3.4.4s-.2 1.2.3 1.2c.6 0 1.1.5 1.1 1.1 0 .5-.4.7-1 .4-.5-.3-1 0-1 .7 0 .8-.5.6-1.1-.5-1.1-1.9-2.9-2.3-2.9-.6 0 .5.5.7 1 .4 1.7-1 1.1.7-.7 2.2-1.7 1.3-1.7 1.3.2.5 1.1-.5 3.4-.8 5-.8 2.3.1 2.9.5 2.7 2-.2 1 .1 1.6.5 1.3.5-.3 1.5-.2 2.3.4 1.1.6 1.2.9.2.9-.7 0-1 .5-.7 1 .5.8 1.2.7 2.3-.2 1.5-1.2 1.6-1.1.3.5-1.3 1.7-1.3 1.8.3 1.5 1.3-.2 2 .4 2.3 2.2.2 1.3.7 2.7 1.1 3 1 .6.9 2.1-.2 3.8-.6 1-.3 1.2 1 1 1.2-.2 1.9.4 2.1 1.7l.3 2-.9-2c-.7-1.5-1-1.6-1-.4-.1 2.1 1 3.1 2.3 2 1.3-1 10.6.9 10.6 2.2 0 .4.5.5 1.2.1s.8-.3.4.4-.2 1.2.5 1.2c.8 0 .8.4-.1 1.5-.7.8-.9 1.5-.5 1.5s.1.8-.6 1.7c-1 1.1-1 1.4-.1.9 1.4-.9 1.5-.5.3 2.8-.7 1.7-.7 2.6.2 3 .9.3.9.5 0 .5-1.4.1.5 7.1 1.9 7.1.5 0 .7.4.4.9-.4.5.4.7 1.6.3 1.6-.4 1.9-.2 1.3.9-.7 1.2-.6 1.2.7.1 1.4-1.1 2-1 3.7.9 1.2 1.3 2.1 2.9 2.1 3.6 0 .7.5 1.3 1 1.3.6 0 1 .7 1 1.6 0 .8.5 1.2 1 .9.6-.3 1-.1 1 .6 0 .6.8 1.8 1.8 2.6.9.8 1.1 1.1.3.7-1-.5-1.2-.3-.5.7.5.8 1 2.5 1 3.9.1 1.4.3 2.5.4 2.5.2 0 1 3.5 1.2 5.7.1.9.4 1.5.6 1.3.3-.2 1.1.2 1.8 1 .8.8 2.1 1.2 2.9.9 1.5-.6 6.8 4 5.8 5-.4.3-.1.6.6.6s1 .4.7.9c-.4.5-.2 1.1.4 1.3.5.1 1.1 1.3 1.3 2.5.2 1.2.6 2.6 1 2.9.4.4.7 1.4.7 2.1 0 1.7 2.4 4.3 3.9 4.3.5 0 1.5.8 2 1.7.6 1 1.1 1.4 1.1 1 0-.4 1-.2 2.3.5 1.2.7 2.9 1.3 3.7 1.4.8 0 2.2.4 3 .7.8.4 2.6.9 4 1.1 1.4.3 2.6.5 2.8.7.1.1.6.2 1.1.3.5 0 1.3.4 1.7.8.4.4 1.3.3 2.1-.3 1-.9 1.3-.8 1.3 0 0 .7.5.9 1 .6.6-.3 1-.1 1 .6s.3.9.7.6c.3-.4 1.3-.1 2.1.6 1.3.9 1.4.9.8 0-.5-.9-.2-1.1.8-.7.9.3 1.4.9 1.2 1.3-.3.4.6.8 2 .9 4.5.3 5.4.5 5.4 1.2 0 .4 1.7.7 3.7.8 2 .1 3.9.5 4.2 1 .9 1.3 9.9.8 11.3-.6.9-.9.5-1.7-1.8-3.7-1.6-1.4-3.3-2.5-3.7-2.5-.5 0-.5-.5-.1-1.2.4-.6.3-.8-.4-.4-.6.3-1.7-.1-2.5-.9-.9-.8-1.9-1.5-2.4-1.5s-1.6-.8-2.5-1.8c-2.1-2.2-3.8-3.9-6-6-2.1-1.9-2.5-4.7-.6-3.6.7.5.3-.5-1-2-1.2-1.6-1.9-3.2-1.6-3.7.3-.5.2-.9-.3-.8-2 .3-3.4-.2-2.8-1.1.3-.6.1-1-.5-1s-2.3-1.1-3.7-2.4c-1.5-1.4-3-2.3-3.5-2-.4.3-1.1-.2-1.4-1-.3-.9-1-1.3-1.5-1-.5.3-.9-.2-.9-1.1 0-.9-.4-1.3-1-1-.5.3-1 .1-1-.5s-.4-.8-1-.5c-.5.3-1 .1-1-.4 0-.6-.6-1.1-1.3-1.1-1.9 0-4.9-4-4.3-5.6.3-.8-.1-1.4-.9-1.4s-1.5-.5-1.5-1.1c0-.5-.4-.8-.9-.4-.5.3-1.6-.2-2.4-1-.9-.8-1.9-1.5-2.3-1.5-.4 0-1.3-.8-2.1-1.8-.8-.9-1.1-1.1-.7-.3.5 1 .3 1.2-.6.6-1-.6-.5-1.5 2.1-3.7 3.6-3.1 3.9-5.2 1-7.8-1-.8-2.3-2.4-2.9-3.5-.6-1.1-1.2-1.5-1.2-.8s-1.1.2-2.5-1.1c-1.8-1.7-2.3-3-1.9-5.1.3-1.6.7-3.2 1-3.6.8-1.3-.7-5.9-1.7-5.3-.5.3-.9 0-.9-.5 0-.6-.9-1.1-2.1-1.1-1.1 0-1.7-.5-1.4-1 .3-.6.1-1-.5-1-1.4 0-7.6-6-7.3-7.1.2-.4-.4-.6-1.2-.3-1 .4-1.5 0-1.5-1.1 0-.9-.4-1.3-1-1-.5.3-1-.1-1-.9 0-.9-.4-1.6-.9-1.6-.8 0-1.8-2.3-2.7-6.4-.2-1 .1-2.5.7-3.3.9-1 .9-1.2-.3-.8-1.1.4-1.4-.2-1.2-2.5.1-1.6-.3-3-.8-3-.6 0-.8-.9-.5-2 .3-1.1.1-2-.4-2s-.9-.5-.9-1.1c0-.5.6-.7 1.3-.3.8.5.8.3-.2-.9-.7-.9-1.7-1.4-2.2-1.1-.5.3-.6-.2-.3-1.1.4-.9.3-1.5-.2-1.4-2.5.4-4.2-.3-5.3-2.4-.9-1.8-1.1-1.8-.6-.2.4 1.7.2 1.6-1.4-.5-1.1-1.3-1.9-2.9-1.8-3.5.1-.5-.5-.9-1.3-.7-.8.2-1.2 0-.7-.4.4-.4 0-1.6-1-2.6-1-1.2-1.2-1.8-.4-1.8.7 0 .9-.5.6-1-.5-.8-1.2-.7-2.3.2-1.5 1.2-1.6 1.1-.3-.4.7-1 1.7-1.5 2.2-1.2.5.3.9 0 .9-.5 0-.6-.5-1.1-1.1-1.1-.5 0-.8-.4-.4-1 .3-.5 1.3-.7 2.3-.4 1.4.5 1.4.4.3-.4-1.7-1.2-5.3.6-4.4 2.2.3.5.1.6-.6.2-.6-.4-.9-1.1-.6-1.6.3-.4-.1-1-.7-1.3-1-.3-1-.7.1-2.1.8-.9 1.6-1.4 1.9-1.2.2.3 1.4-.6 2.5-2 1.2-1.6 2.5-2.3 3.5-1.9.9.3 1.3.3 1-.1-1-1 .9-4.2 3.3-5.5 1.7-.9 2-.8 1.4.3-.5.7.3.3 1.7-1 1.3-1.2 3-2.2 3.6-2.2.7 0 1.2-.5 1.2-1.1 0-.5.5-.7 1.2-.3.7.4.8.3.4-.4-.8-1.3 2.8-3.5 3.9-2.4.5.4.5.1.1-.6-.4-.6-.2-1.2.4-1.2.6 0 2-.9 3.2-2 1.2-1.1 2.7-2 3.2-2 .6 0 .4.5-.4 1.1-1.3.9-1.3 1 0 .6 1-.2 1.4-1.4 1.2-3.8-.1-1.9-.3-4.2-.3-5.2 0-.9-.4-1.7-.9-1.7s-.7 1.2-.5 2.7c.2 1.6.2 2.2-.1 1.5-.3-.6-1.2-1.2-2-1.2s-1.4-.6-1.4-1.3c0-.8-.4-.7-1 .3-.8 1.3-1 1.2-1-.3 0-1-.4-1.5-1-1.2-.5.3-.7 0-.4-.9.3-.9 1.2-1.2 2.1-.9 1 .4 1.4.2 1-.4-.3-.5 0-1 .8-1s1.2.4.9.9c-.3.4 0 .8.5.8.6 0 1.1-.5 1.1-1 0-.6 1.3-1 2.9-1 1.8 0 3.1-.6 3.5-1.7.6-1.5 1-1.2 2.8 1.5 2.1 3.4 3.1 4.2 2.2 1.7-.4-.8-.1-1.5.6-1.5.6 0 .8-.5.4-1.3-.6-.8-.3-.8.9.1 1.7 1.4 4.2.8 3.2-.8-.3-.5 0-1.2.6-1.6.8-.5.9-.3.4.6-.6 1-.3 1.2 1.1.7 1.4-.6 1.3-.3-.5 1.1-1.5 1.3-2.1 2.4-1.6 3.2.5.8.4 1.1-.3.6-.7-.4-1 .1-.7 1.4.2 1.1 0 2-.6 2-.5 0-.9-.7-.9-1.6 0-.9-.6-1.4-1.3-1.1-.7.3-2.1-.1-3.1-.9-1.1-.7-2.3-1.1-2.9-.7-.6.4-.7.1-.2-.7.5-.9.4-1.1-.4-.6-.6.4-.9 1.2-.6 1.7.4.5.1.9-.5.9-.7 0-.9.8-.5 2.1.6 1.6.4 2-.6 1.4-.8-.5-1-.4-.6 0 .4.5 1.4 1 2.2 1.1 1.1.2 1.2-.2.5-1.6-.7-1.3-.5-2.1.7-3.1 1.4-1.2 1.6-1.2 1.1.2-.3.9-.2 2.2.3 3 .7 1.2.9 1.2 1-.1.1-.8.1-1.9 0-2.3-.1-.5.3-.5.9-.2.6.4.9 1.2.7 1.9-.2.6 1 2.2 2.7 3.5l3.1 2.5-2.2-2.5c-1.3-1.4-2.3-3.1-2.3-3.7 0-.7 1.3.2 3 2 1.6 1.8 3 2.7 3 2 0-.6-.4-1.2-1-1.2-.5 0-1-.5-1-1.1 0-.5.5-.7 1-.4.6.3 1 .1 1-.5s.5-.8 1.3-.4c.8.5.7.2-.2-.9-2.2-2.8-.7-2.9 2.2-.3 2.5 2.4 4 2.3 1.6-.1-.7-.7-.3-1.1 1.5-1.1 1.4 0 2.3.4 2.1.9-.3.4-.1 1 .4 1.3 1.8 1.1.5-2.4-1.5-4s-1.6-1.6 3.4.3c2.6 1 1.1-.2-2.7-2.2-2-1-3-1.2-2.6-.4.6.8.4 1-.6.4-1.2-.7-1.2-.6-.1.7 1 1.3 1 1.7-.4 2.2-2.3.9-3.1.7-1.4-.4.8-.5 1.1-1.2.7-1.7-.5-.4-1.1-.3-1.5.2-.7 1.1-3.2 1.8-3.2 1 0-.2 1.2-1 2.6-1.8 2.5-1.3 2.5-1.4.7-3.2-1.5-1.6-1.6-1.8-.1-1.3.9.4 1.9.2 2.2-.5.3-.7.3-.1-.1 1.3-.5 2.1-.4 2.3.9 1.3 1.6-1.4 1.7-4 .3-6.3-.8-1.3-.7-1.3.9-.1.9.8 1.5 2 1.2 2.6-.2.7.1 1.8.7 2.5.9 1 .9 1.1 0 .6-.6-.3-1.5-.1-1.9.6-.4.7-.4 1 .1.6.4-.4 2.1 0 3.7.8 1.7.9 3.2 1.3 3.5 1.1.2-.3-.5-.8-1.6-1.2-1.2-.3-2.1-1.1-2.1-1.6 0-1.2 1.4-1.1 2.7.2.9.9 1.1.7.9-.7-.2-1.1-1.1-1.9-2.1-1.9s-2-.7-2.2-1.5c-.4-1.2-.3-1.2.5-.1.7.9 1.1 1 1.7.2.5-.9 1.1-.9 2.3.1 1.4 1 1.5 1 .5-.2-1-1-.8-1.9.8-4.1 1.6-2.3 1.7-2.8.5-2.3-.9.3-1.6 1.2-1.6 2 0 2.8-1.5 1.3-1.6-1.6-.1-2.4.1-2.8 1.1-2 1.7 1.4 3.2-.7 1.6-2.3-1.6-1.6-1.4-2.5.7-3 1.6-.4 1.6-.5-.1-.6-1 0-1.6-.5-1.2-1.1.3-.5 1.3-.6 2.2-.3 1.1.4 1.4.3.9-.6-.5-.7-1.4-1-2.2-.7-.8.3-1.9-.4-2.5-1.7-1.2-2.1-1.1-2.1.6-.7 1.7 1.4 1.7 1.4.7-.7-.9-1.7-.9-2.1.2-1.9 2 .3 4.7 2.7 4.1 3.6-.3.5-.1 1.1.4 1.4 1.2.8.8-1.3-.7-4-1.2-2.3-.5-3.9 1.2-2.5.7.6 1.6.4 2.4-.5.7-.8 1-1.4.6-1.4-.3 0-.1-.6.5-1.3 1.4-1.8-5-8.3-7.1-7.1-1 .6-1 .4.1-.9.8-1 1.1-2 .7-2.4-.3-.3-.6-.2-.6.4 0 1.6-2.8 2.4-3.6 1.1-.4-.7-.3-.8.4-.4s1.2.3 1.2-.2c0-1.7 3.2-2.3 4.8-1 1.3 1.1 1.5 1 1-.4-.4-1-.1-1.9.8-2.2.9-.4 1.2-.2.8.5-.4.7-.1 1 .7.7.8-.3 1.3-1.1 1.1-1.7-.1-.7.2-1 .8-.6.6.3.8 1.2.4 1.8-.3.7 0 .5.8-.3.7-.8 2-1.6 2.8-1.8 1.1-.2 1 .1-.3 1.2-1 .8-1.4 1.7-.9 2 .5.3 1.2.2 1.6-.1 1-1.1 3.6-1.2 3.6-.2 0 .5-.5.9-1.1.9-.5 0-.7.5-.3 1.2.5.7 1.1.5 2.1-.7.7-1.1 1.3-1.4 1.3-.8 0 .7-.4 1.5-1 1.8-.5.3-1 1-1 1.6 0 .5.9.4 1.9-.3 1.1-.7 1.7-1.7 1.5-2.3-.3-.5.4 0 1.5 1.3 1.6 1.8 2.4 2.1 3.9 1.3 1.1-.6 2.2-.7 2.6-.4.3.3.6.1.6-.6s.5-.9 1-.6c.6.3 1 .1 1-.4 0-.6-.4-1.1-1-1.1-.5 0-1-.6-1-1.3.1-.6 1-.1 2 1.2 1.5 1.7 2 1.9 2 .8 0-.9-.4-1.9-1-2.2-.5-.3-1-1.2-1-1.8 0-.7.4-.6 1 .3.8 1.2 1 1.3 1 .1 0-.8.8-2.3 1.7-3.3 2.2-2.4 2.8-5.9.9-5.2-.8.3-1.7.1-2-.4-.3-.5.6-.8 1.9-.6 1.4.1 2.7-.2 3.1-.7.3-.5 0-.9-.7-.9-.9 0-.9-.3 0-1.4.8-1 .9-1.6.1-2.1-.5-.3-1-.1-1 .5s-.5.8-1.1.5c-.6-.5-.2-1.3 1.1-2.2l2.1-1.5-2.1-3.5c-1.1-1.9-2.2-4.4-2.4-5.6-.2-1.3-1.3-2.4-2.7-2.8l-2.4-.7 2.4-.1c2.4-.1 2.4-.1.6-2.1-1-1.2-2.4-1.9-3.1-1.6-.7.3-1-.3-.8-1.7.2-1.2.2-1.6-.2-1-.4 1-.9.9-2.1-.2-1.7-1.7-2.3-1.8-4.3-.5-1.3.8-1.2 1.1.5 2.4 1.1.9 2.5 1.4 3.1 1.2.6-.2 1.1.2 1.1 1 0 1.1-.5 1.1-2.6-.2-1.4-1-4.1-1.8-6-2-3.4-.3-6.6-2.8-5.5-4.5.3-.5.3-.9 0-.9s-.8.4-1.1 1zm14 3c.3.5.2 1-.4 1-.5 0-1.3-.5-1.6-1-.3-.6-.2-1 .4-1 .5 0 1.3.4 1.6 1zm-11.2 3.7c-.5 1.2-.3 1.4.7.8.9-.6 1.1-.4.5.5-.6 1-1.1.9-2.1-.4-.9-1.3-1.3-1.4-1.7-.4-.5 1-.3-1.5.2-4.1.1-.2.7.2 1.5.9.8.6 1.2 1.9.9 2.7zm4.7.3c0 .5-.5 1-1.1 1-.5 0-.7-.5-.4-1 .3-.6.8-1 1.1-1 .2 0 .4.4.4 1zm12 0c0 .5-.5 1-1.1 1-.5 0-.7-.5-.4-1 .3-.6.8-1 1.1-1 .2 0 .4.4.4 1zm-8 1.4c0 .3-.4.8-1 1.1-.5.3-1 .1-1-.4 0-.6.5-1.1 1-1.1.6 0 1 .2 1 .4zm6 2c0 .2-.7.7-1.6 1-.8.3-1.2.2-.9-.4.6-1 2.5-1.4 2.5-.6zm8 10.8c0 1.7-1 .6-2.5-2.5l-1.6-3.2 2 2.5c1.1 1.4 2.1 2.8 2.1 3.2zm-154.6 1.7c.3.4-.6.6-2.1.3-1.7-.3-2.4-.1-1.9.6.3.6.2 1.3-.3 1.6-.7.5-.8-1.1-.2-3.2.2-.6 4-.1 4.5.7zm153 5.1c-.6.5-2.4-2.1-2.4-3.4 0-.6.6-.1 1.4 1 .8 1 1.2 2.1 1 2.4zm-5.3 7.7c1.3 1.6 1.2 1.7-.3.4-1-.7-1.8-1.5-1.8-1.7 0-.8.8-.3 2.1 1.3zm-3.6.2c.3.5.2 1.2-.3 1.5-.5.3-.9-.1-.9-.9 0-1.7.3-1.9 1.2-.6zm-10.7 2.6c-.3.3-.9-.2-1.2-1.2-.6-1.4-.5-1.5.5-.6.7.7 1 1.5.7 1.8zm9.2 1.9c0 .2-.7.7-1.6 1-.8.3-1.2.2-.9-.4.6-1 2.5-1.4 2.5-.6zm2.8 2.1c-.3.3-.9-.2-1.2-1.2-.6-1.4-.5-1.5.5-.6.7.7 1 1.5.7 1.8zm-2.3.5c.3.5.1 1-.4 1-.6 0-1.1-.5-1.1-1 0-.6.2-1 .4-1 .3 0 .8.4 1.1 1zm-26.9 21.1c0 .8-.6 2.1-1.4 3-1.1 1.5-1.1 1.7.4 1.5.9 0 1.9.6 2.2 1.4.3 1.2.2 1.2-.8.3-.7-.6-1.9-.9-2.8-.5-1.1.4-1.4.1-.9-1.1.7-1.7-1.5-4.1-2.8-2.9-.5.4-.5.1-.1-.6.6-.9 1.1-1 2-.3 1.5 1.3 2.6.4 2.6-1.8 0-1.3-.2-1.3-.9-.3-.6 1-1 .8-1.4-.8-.5-2-.4-2 1.6-.7 1.2.8 2.2 2.1 2.3 2.8zm-5.1 6.9c-.3.5-1.2 1-1.8 1-.7 0-.6-.4.3-1 1.9-1.2 2.3-1.2 1.5 0zm3.1 4c.2 2.3-.2 2.8-1.7 2.7-2.5-.2-3.1-2-1.2-4.6 1.8-2.6 2.6-2.1 2.9 1.9zm-8.1 3.9c-.9.8-3.6 1-3 .2.2-.4 1.1-.8 2-.8.8 0 1.3.3 1 .6zm-8 2c.3.5.2 1.2-.3 1.5-.5.3-.9-.1-.9-.9 0-1.7.3-1.9 1.2-.6zm-86.1 55c1.5 2.7 1.2 4.1-.6 4.1-.4 0-.8-.7-.8-1.6 0-.9-.5-1.2-1.2-.8-.6.4-.8.3-.4-.4.3-.6.2-1.3-.4-1.7-1.1-.7-.4-2.5 1-2.5.5 0 1.6 1.3 2.4 2.9zM313 266c0 .5-.4 1-1 1-.5 0-1-.5-1-1 0-.6.5-1 1-1 .6 0 1 .4 1 1zm-17 19.4c0 .3-.4.8-1 1.1-.5.3-1 .1-1-.4 0-.6.5-1.1 1-1.1.6 0 1 .2 1 .4zm-6.5 30.4c-.3.3-1.1 0-1.8-.7-.9-1-.8-1.1.6-.5 1 .3 1.5.9 1.2 1.2zm15.6 12.9c-1 .8-1.9.8-2.6.2-.6-.7-.5-1.3.4-1.8.8-.5 1-1.4.6-2.2-.5-.8.1-.5 1.2.6 1.8 1.8 1.8 2.1.4 3.2zm-1.2 16.4c-2.2 1.3-3.1 1.1-1.7-.5.7-.8 1.7-1.2 2.2-.9.4.3.2.9-.5 1.4zm-.4 1.9c.4-.6 1.1-.8 1.6-.4.6.4.3 1.4-.7 2.5-.9 1-1.2 1.9-.6 1.9.7 0 .3 1.5-.9 3.5-1.2 1.9-2.5 3.3-2.9 3-.9-.6-2.3 2.5-1.5 3.3.3.3.5 0 .5-.6 0-.7.7-1.2 1.5-1.2 2.2 0 1.8 1.7-.5 2.3-2.5.6-3.4-.7-2.2-3 .5-1 .8-2.8.7-4-.1-1.5.3-1.9 1.4-1.5 1.4.5 1.4.4.1-1.3-.8-1-1-1.6-.3-1.2 1.8 1.1 2.2-1.6.4-3.1-1.4-1.1-1.3-1.2.6-.3 1.5.8 2.4.8 2.8.1zm-4 17.9c.9 2.3-.8 3.1-3 1.4-2-1.5-2-1.5.4-1l2.3.6-2.3-2.6c-2.3-2.5-2.3-2.5-.2-1.2 1.3.7 2.5 2 2.8 2.8zm-10.8 6.3c.2 1.7 0 1.9-.7.8-.5-.8-.6-1.8-.4-2.2.8-1.2 1-1 1.1 1.4zm-8.2 16.4c1.4 1.4 3 2.2 3.5 1.9.6-.3 1-.1 1 .5 0 .7-.7.9-1.6.6-.8-.3-1.2-.2-.9.3.3.5.1 1.2-.5 1.6-1 .6-1.5-.9-1-3 .1-.6-.2-.6-.7-.2-.4.5-.8 1.4-.8 2 0 1.4-2.5 1.7-4.1.5-.7-.5-1.4-.3-1.8.7-.6 1.7-1.5 1.9-3.5.6-1.2-.7-1.2-1.3-.3-2.4.7-.7 1-1.6.7-1.9-.3-.3.3-1.1 1.2-1.9 1.6-1.3 1.7-1.2.4.3-1.6 2.1-.9 2.3 1.9.6 1.5-1 2.2-1 3.2 0 2 2 3.2 1.3 1.3-.8-2.6-2.9-1-2.5 2 .6z"/><path d="M394.1 190.9c-.8 1.4-.7 2 .2 2.4.8.3 1.3-.4 1.3-1.9 0-2.9-.2-3-1.5-.5zM291 251.4c0 .2.7.9 1.5 1.6 1.3 1.1 1.4 1 .9-.4-.5-1.4-2.4-2.3-2.4-1.2zM302.9 348.7c-1.3 1.6-1.2 1.7.4.4 1.6-1.3 2.1-2.1 1.3-2.1-.2 0-1 .8-1.7 1.7zM301.4 351.9c.3.5-.1 1.4-.9 2.1-.8.7-1.2 1.7-.9 2.2.3.5 1.2-.3 2-1.7 1.7-3.3 1.7-3.5.3-3.5-.5 0-.8.4-.5.9zM273.4 389.5c-.4.8-1 1.3-1.4 1-.5-.3-1.1-.1-1.4.4-1.3 2.1 1.6 2.1 3.3 0 1.4-1.7 2-1.9 2.6-.9.6.9.4 1.1-.6.5-.8-.5-1-.4-.6 0 .4.5 1.4 1 2.2 1.1 1.2.2 1.2-.2.5-1.7-1.3-2.3-3.8-2.5-4.6-.4zM158.9 117.7c-.7 4.7 1.3 8.3 4.2 7.6 2.5-.7 1.9-2.8-.8-2.8-1.2 0-2.5-.3-2.9-.8-.4-.4-.3-.7.2-.7s1-.9 1.1-2c.2-1.8-1.5-3-1.8-1.3z"/><path d="M162.7 118.7c-1 .9-.9 2.3.1 2.3.5 0 .9-.7.9-1.5 0-1.7-.1-1.8-1-.8zM435.6 120.7c-1.6 1.7-2.2 3.1-1.6 3.7.4.6.9 1.4.9 1.8.1.5.1.9.2 1 0 .2.2 1.1.4 2.1.7 3.6 1.5 4.8 2.7 4.1.8-.5.9-.2.5.9-.4 1-.2 1.6.5 1.4.6-.1 1.3.4 1.6 1.2.3.9 0 1.1-.9.6-.8-.5-1.1-.5-.7 0 .4.4.3 1.4-.3 2.2-.6.7-1 1.3-.8 1.4 3.6.7 5.2.8 4.4.2-.8-.6-1.3-6.8-.5-6.8.1 0 .3-.8.5-1.8.4-2-.6-2.2-2.3-.5-.9.9-1.2.9-1.2 0 0-.6.8-1.6 1.8-2.1.9-.6 1.2-1.1.5-1.1-.6 0-1.5.4-1.8 1-.3.5-1.1 1-1.7 1-.7 0-.6-.5.1-1.4.9-1.1.9-1.9-.1-3.5-1.1-1.8-1-2.3.7-3.6 2-1.6 1.9-1.6-.2-.6-3.4 1.7-3.8 1.3-1.3-1.4 1.3-1.4 2.1-2.5 1.7-2.5-.3 0-1.7 1.2-3.1 2.7zm2 6.4c.3.6.1 1.6-.6 2.2-1 .9-1.1.9-.5-.2.4-.8.2-1.7-.6-2.2-.9-.6-1-.9-.2-.9.6 0 1.5.5 1.9 1.1zm4.4 6.3c0 .3-.4.8-1 1.1-.5.3-1 .1-1-.4 0-.6.5-1.1 1-1.1.6 0 1 .2 1 .4zM278.6 119.8c-.3.5.1.9.9.9s1.2-.4.9-.9c-.3-.4-.7-.8-.9-.8-.2 0-.6.4-.9.8zM403.9 119.2c-.7 2.4-.4 4 .9 5 1.5 1.1 1.5 1.1.6-.2-.6-.8-1-2.3-.9-3.3.3-1.3-.2-2.6-.6-1.5zM127 121.4c0 .2.7.7 1.6 1 .8.3 1.2.2.9-.4-.6-1-2.5-1.4-2.5-.6zM165.6 122.2c.3.4 1.1.5 1.9.1 2.1-.7 1.9-1.2-.4-1-1.1 0-1.8.5-1.5.9zM170.6 123.8c-.3.5.1.9.9.9s1.2-.4.9-.9c-.3-.4-.7-.8-.9-.8-.2 0-.6.4-.9.8zM280.3 124.2c-.9 1.6-1.6 5.4-.7 4.6.3-.3.6-1.2.8-2 .1-.7.5-1.9.9-2.6.5-.6.6-1.2.3-1.2s-.8.6-1.3 1.2z"/><path d="M440.3 123.7c-1.5.5-1.7 2.3-.4 2.3.5 0 1.1-.7 1.5-1.5.3-.8.4-1.5.3-1.4-.1 0-.8.3-1.4.6zM75 125c0 .5.5 1 1.1 1 .5 0 .7-.5.4-1-.3-.6-.8-1-1.1-1-.2 0-.4.4-.4 1zM167.2 124.9c-1.1.7-1.1.9 0 1.4.9.3 1.5-.1 1.5-.9s-.1-1.4-.1-1.4c-.1 0-.7.4-1.4.9zM79.5 127c-.3.5-.3 1 .1 1s-.1.7-1.2 1.6c-1.8 1.5-1.8 1.5 0 .6 1.1-.5 2.1-1.7 2.2-2.6.3-1.8-.2-2.1-1.1-.6zM83.5 127.1c-.4.6-.5 1.2-.2 1.5.2.3.7-.2 1-1.1.7-1.7.1-2-.8-.4zM162.5 126.9c-.6 1.1.9 2.3 1.9 1.4.9-.9.7-2.3-.3-2.3-.6 0-1.2.4-1.6.9zM408.4 126.9c-1.5 1.1-4 4.5-2.7 3.8.8-.5 1.1 0 1 1.3-.1 1.1-.9 2.3-1.9 2.6-1.9.6-2.5 3.4-.7 3.4.5 0 .8-.4.4-.9-.7-1.3 3.2-3.4 4.8-2.6.6.3.5 0-.4-.6-1.5-1.1-1.3-1.5 1.2-4 2.5-2.4 2.6-2.8.9-3.2-1-.2-2.2-.2-2.6.2zm1.1 2c-.3.6-1.1 1.1-1.6 1.1s-.4-.6.3-1.4c1.4-1.6 2.4-1.3 1.3.3zM165.4 128.7c-.4 1-.8 2-.8 2.3-.1.3-.4 1-.8 1.5-1 1.7 1.5 4 4.5 4.2 2.6.1 2.6 0 1-1.2-1-.8-2-.9-2.1-.4-.2.5-.8.6-1.3.3-.6-.3-.5-1.2.2-2.1 1-1.2 1-1.6-.2-2.4-1.2-.8-.6-1.3 1.3-1 .4 0 .5-.6.2-1.4-.8-1.9-1-1.9-2 .2zM269 128.4c0 .8.4 1.7.9 2 .5.4.7-.3.4-1.4-.6-2.3-1.3-2.6-1.3-.6zM281.5 128.1c-.4.6-.5 1.2-.2 1.5.2.3.7-.2 1-1.1.7-1.7.1-2-.8-.4zM284.6 128.2c.3.4.9.8 1.5.8.5 0 .9-.4.9-.8 0-.5-.7-.9-1.5-.9s-1.2.4-.9.9z"/><path d="M276.6 129.4c.3.9.1 1.6-.4 1.6-.6 0-1 .9-.9 2 .1 1.9 1.2 1.8 1.2-.3 0-.5.6-1.2 1.4-1.5.8-.3 1.1 0 .7.6-.4.6.3 1.6 1.4 2.2 1.1.6 1.7 1.6 1.4 2.2-.4.6-.3.8.3.5.6-.4 1.4 0 1.7.9.3.8 1 1.3 1.5.9.6-.3.8-1.2.5-2-.3-.7.4-2.3 1.5-3.4 2.4-2.4 1.5-2.8-1.3-.6-1 .8-2.3 1.2-2.9.8-.5-.3 0-1.1 1.3-1.8 1.9-1 2-1.3.6-1.8-1-.4-1.5-.3-1.2.2 1.2 1.9-2.4 1.9-4.8 0-2-1.6-2.4-1.7-2-.5zm5.4 4.1c.7.8 1.7 1.2 2.3.8.6-.4.7-.1.3.6-.6.9-1.3.8-2.9-.6-1.2-1-2.4-1.9-2.6-2-.2-.2 0-.3.6-.3s1.6.7 2.3 1.5zM403 129c-.9.6-1 1-.3 1 .6 0 1.5-.5 1.8-1 .8-1.2.4-1.2-1.5 0zM125.6 130.7c-.6 1.4-.5 1.5.5.6.7-.7 1-1.5.7-1.8-.3-.3-.9.2-1.2 1.2zM294 129.4c0 .2.8 1 1.8 1.7 1.5 1.3 1.6 1.2.3-.4s-2.1-2.1-2.1-1.3zM443.6 130.2c.3.5 1 .6 1.5.3 1.3-.9 1.1-1.2-.6-1.2-.8 0-1.2.4-.9.9zM399.5 130.9c-.3.5-.2 1.2.3 1.5.5.3.9-.1.9-.9 0-1.7-.3-1.9-1.2-.6zM79 131.4c0 .2.7.7 1.6 1 .8.3 1.2.2.9-.4-.6-1-2.5-1.4-2.5-.6zM127.9 132.7c-1.3 1.7-1.3 1.7.6.3 1.1-.8 2.2-1.6 2.4-1.7.2-.2 0-.3-.6-.3s-1.7.8-2.4 1.7zM289.7 132.5c-.8 1.9 1.2 3 2.6 1.6.9-.9.8-1.1-.6-.5-1.3.5-1.6.2-1.1-1 .3-.9.4-1.6.1-1.6-.3 0-.7.7-1 1.5zM401.6 133.7l-1.7 2.8 1.9-2.2c1.1-1.2 2.3-1.9 2.7-1.5.5.4.5.1.1-.6-1-1.7-1.1-1.6-3 1.5zM169.5 134c.3.5.8 1 1.1 1 .2 0 .4-.5.4-1 0-.6-.5-1-1.1-1-.5 0-.7.4-.4 1zM132 135.9c0 .5.8 1.5 1.8 2.2 1.5 1.2 1.6 1.2.5-.2-.7-.9-1-1.9-.6-2.2.3-.4.1-.7-.5-.7-.7 0-1.2.4-1.2.9zM127.6 138.7c-.6 1.4-.5 1.5.5.6.7-.7 1-1.5.7-1.8-.3-.3-.9.2-1.2 1.2zM451 140c0 .5.5 1 1.1 1 .5 0 .7-.5.4-1-.3-.6-.8-1-1.1-1-.2 0-.4.4-.4 1zM443.6 142.5c-1.1.8-1.7 1.7-1.4 2 .2.3 1.3-.4 2.3-1.5 2.1-2.3 1.8-2.5-.9-.5zM37.1 144.6c0 1.1.3 1.4.6.6.3-.7.2-1.6-.1-1.9-.3-.4-.6.2-.5 1.3zM439.2 144.2c.1.7-.3 2.3-1 3.5-.7 1.3-1 2.3-.6 2.3s0 .8-.8 1.7c-2.2 2.6-4.3 6.7-2.9 5.9 1.4-.9 1.4 0 0 2.5-.5 1.1-1.4 1.7-2 1.4-.5-.4-.9-.2-.9.4 0 .5-.8.8-1.7.6-1-.1-2.8.3-4 1.1-2 1.2-2.2 1.2-2.8-.7-.6-1.8-.9-1.9-2.9-.5-1.5.9-2.8 1.1-3.7.5-.8-.5-1-.9-.5-.9s.3-.6-.3-1.3c-.6-.8-.7-1.8-.3-2.3.4-.4 0-.3-1 .4-1.1.9-1.8 1-2.3.2-.4-.7-1.2-.7-2.4 0-1 .5-2.1.6-2.5.3-.3-.3-.6-.1-.6.6s.7 1.1 1.5.8c.7-.3 2.4.3 3.7 1.3 1.3 1.1 1.8 1.9 1.1 2-.6 0-1.5-.5-1.8-1-.3-.6-1.4-1-2.3-1-.9.1 0 .9 2.1 1.9 2 .9 3.4 2.1 3 2.6-.5.5-.1.4.9-.3.9-.8 1.9-.9 2.2-.4.3.6-.1 1.2-.9 1.6-.8.3-1.5 1.1-1.5 1.8 0 .9.3.8 1-.2.8-1.3 1.1-1.2 2.4.5.9 1.1 1.6 1.5 1.6.9 0-.5-.5-1.5-1.2-2.2-.7-.7-.8-1.2-.2-1.2.6 0 1.9.9 2.9 2s2.3 2 2.9 2c.6 0 .5-.4-.3-.9s-.9-1.1-.3-1.5c.6-.4 1.6.2 2.2 1.1 1 1.5 1.1 1.5.6.1-.3-1 .4-2.2 2-3.2 2.3-1.6 2.4-1.5 2.1.5-.1 1.2.5 2.4 1.3 2.6 1.3.4 1.3.3 0-.6-.8-.5-1.1-1.3-.7-1.7.4-.4 1.5 0 2.5.9 1.5 1.4 1.9 1.5 1.9.2 0-.8-.3-1.3-.6-1.1-.3.2-1.2-.2-1.9-1-1-1.1-1-1.4 0-1.4.9 0 .9-.3-.2-1.1-1.2-.9-1.1-1 .7-.6 1.7.4 2 .1 1.5-1.2-.5-1.4-.4-1.4 1.3-.1 1.5 1.2 1.7 1.2 1 .1-.6-1.1-.4-1.3 1.1-.7 1.5.6 1.7.5.7-.5-1.6-1.6-1.7-3.3-.1-2.3.7.4.8.3.4-.5-.4-.6-1.1-.9-1.6-.6-.5.3-1.1.1-1.4-.4-.4-.5-.1-1.3.5-1.7.7-.4.9-.3.6.3-.3.5.4.9 1.6.8 1.2-.1 2.8.3 3.6.9 1.2.9 1.2.8 0-1.1-.8-1.4-2-2.1-3.1-1.8-.9.3-2 0-2.4-.6-.4-.7-.3-.9.4-.5.6.3 1.4.2 1.7-.4.4-.6 1.5-.8 2.6-.5 1.1.4 1.9.2 1.9-.5 0-.6-.4-.9-.9-.6-.4.3-1.7-.1-2.7-.9-1.6-1.3-1.7-1.4-.1-.9 1 .4 1.7.1 1.7-.6 0-.6-.4-.8-1-.5-.5.3-1 .1-1-.4 0-.6.4-1.1.9-1.1.6 0 .9-.9.8-2-.1-1.1-.5-2-1-2-.4 0-.7.6-.5 1.2zm-25.8 16.3c.5 0 1.1 1.1 1.3 2.4.2 1.4.2 2.3.1 2-.2-.2-1.4-1.7-2.8-3.3-1.4-1.6-1.8-2.5-1-2s1.9.9 2.4.9zm6.1 3.5c-.3.5-.1 1 .4 1 .6 0 1.1-.6 1.1-1.3 0-.6.5-.4 1.1.6.8 1.4 1.4 1.5 2.4.7 1.9-1.6 5.4-2 6.1-.8.4.6.2.8-.4.4-.6-.3-1.3-.2-1.7.3-.3.6-1.2.8-2.1.4-.8-.3-1.4-.2-1.2.3.2.5 0 .9-.3.9s-1.3.6-2.2 1.3c-1.3 1.1-1.7 1-2.9-.7-.8-1.2-1.7-1.8-2-1.5-.3.3-.9 0-1.4-.7-.4-.7-.3-1 .4-.5.6.3 1.3.2 1.7-.4.3-.5.8-1 1.1-1 .3 0 .2.4-.1 1z"/><path d="M420.6 165.9c-.4.5-.2 1.2.3 1.5.5.4 1.2.2 1.5-.3.4-.5.2-1.2-.3-1.5-.5-.4-1.2-.2-1.5.3zM171.4 147.5c0 1.3.3 2.2.7 1.9.8-.4.6-3-.2-3.8-.3-.3-.5.5-.5 1.9zM442.1 146.6c-.1.5.5 1.8 1.2 2.8 1.2 1.6 1.3 1.6 1.3-.3 0-1.1-.3-1.8-.7-1.5-.4.2-1-.2-1.2-.8-.3-.7-.6-.8-.6-.2zM35.3 148.5c0 .7 1 1.8 2.1 2.5 1.9 1.2 2 1.2.8-.3-.8-.9-1.1-2-.8-2.5.3-.5-.1-.9-.8-.9-.7 0-1.3.6-1.3 1.2zM252.6 150.2c.3.5 1 .6 1.5.3 1.3-.9 1.1-1.2-.6-1.2-.8 0-1.2.4-.9.9zM372.6 152.7c-.6 1.4-.5 1.5.5.6.7-.7 1-1.5.7-1.8-.3-.3-.9.2-1.2 1.2zM259.9 156.7c-.1.5-.1 1.2 0 1.7s-.4.6-1.2.3c-.7-.3-1.3.3-1.4 1.3-.2 1.7 0 1.7 2.2-.2 1.4-1.2 2.2-2.5 1.9-3-.6-1-1.4-1-1.5-.1zM39 161c0 .6-.5.8-1.2.4-.9-.5-.9-.2.1.9.7.9 1.9 1.7 2.5 1.7.6 0 .5-.4-.3-.9-1.1-.7-1.1-.9 0-1.3 1-.3 1-.6.1-1.2-.7-.4-1.2-.2-1.2.4zM404.6 163.1c2.4 2.7 5.4 4.3 5.4 2.9 0-.5-.7-1-1.5-1s-2-.9-2.7-2c-.7-1.1-1.7-2-2.2-2-.5 0-.1.9 1 2.1zM33.6 164.2c.3.4 1.2.8 2 .8s1.4-.4 1.4-.8-.9-.8-1.9-.8c-1.1 0-1.7.4-1.5.8zM439 164.5c.5.7.6 1.6.2 2.1-.4.5-.3.5.2.1 1.5-1.2 1.5-3.4 0-3.4-.9 0-1.1.4-.4 1.2zM252.5 166c-.3.6.1.7.9.4 1.8-.7 2.1-1.4.7-1.4-.6 0-1.3.4-1.6 1zM434 165.4c0 .2.7.6 1.5 1 .8.3 1.5.1 1.5-.4 0-.6-.7-1-1.5-1s-1.5.2-1.5.4zM409.7 168.6c-1 1.3-1.4 2.4-1 2.4.9 0 3.6-4 3.1-4.5-.2-.2-1.1.8-2.1 2.1zM298.5 168.1c-.3.4.2.6 1 .5 2.1-.3 2.8-1.3 1-1.3-.9 0-1.8.4-2 .8zM295.6 170.6c-.8 2-.8 2.4.2 2.4.4 0 .8-.9.9-2 .2-2.4-.3-2.6-1.1-.4zM411.5 170c-.3.5-.1 1 .4 1 .6 0 1.1-.5 1.1-1 0-.6-.2-1-.4-1-.3 0-.8.4-1.1 1zM426.6 171.6c-.5 1.4-.4 1.5.9.4 1.7-1.4 1.9-2 .6-2-.5 0-1.2.7-1.5 1.6zM257.6 172.6c-.5 1.4-.4 1.5.9.4 1.7-1.4 1.9-2 .6-2-.5 0-1.2.7-1.5 1.6zM416.6 172.3c.3 1 .9 1.5 1.2 1.2.3-.3 0-1.1-.7-1.8-1-.9-1.1-.8-.5.6zM419.5 171.9c-.6 1.1 1.3 2.6 2.2 1.7.4-.3.1-.6-.6-.6s-.9-.5-.6-1c.3-.6.4-1 .1-1-.3 0-.7.4-1.1.9zM429.9 172.7c-1.3 1.7-1.3 1.7.6.3 1.1-.8 2.2-1.6 2.4-1.7.2-.2 0-.3-.6-.3s-1.7.8-2.4 1.7zM407.8 173.7c.7.3 1.6.2 1.9-.1.4-.3-.2-.6-1.3-.5-1.1 0-1.4.3-.6.6zM262.4 176.4c2.6 2.3 2.4 3.1-.6 2.8-.3-.1-1.2.6-2 1.6-1.2 1.5-1.1 1.6.5.3.9-.7 1.7-1 1.7-.7 0 .4.9.2 2.1-.4 1.7-.9 1.8-1.4.8-2.6-.7-.8-2.2-2-3.3-2.6-1.4-.6-1.1-.1.8 1.6zM291 176c-.8 1.5-.8 2 .1 1.8.6-.2 1.4.3 1.7 1.1.3.9 0 1.1-.8.6-.9-.6-1.1-.4-.5.4.5.9 1 1 1.8.2.7-.7.6-1.5-.2-2.5-.7-.8-1-2-.6-2.6.3-.5.4-1 .1-1-.3 0-1 .9-1.6 2zM294.1 175.6c0 1.1.3 1.4.6.6.3-.7.2-1.6-.1-1.9-.3-.4-.6.2-.5 1.3zM257.6 175.8c-.3.5.1.9.9.9s1.2-.4.9-.9c-.3-.4-.7-.8-.9-.8-.2 0-.6.4-.9.8zM412.6 176.2c.3.5 1 .6 1.5.3 1.3-.9 1.1-1.2-.6-1.2-.8 0-1.2.4-.9.9zM421 176.5c.5.7.6 1.6.2 2.1-.4.5-.3.5.2.1 1.5-1.2 1.5-3.4 0-3.4-.9 0-1.1.4-.4 1.2zM407 178.1c0 .5.5.7 1 .4.6-.3 1-.8 1-1.1 0-.2-.4-.4-1-.4-.5 0-1 .5-1 1.1zM425 178.1c0 .5.5.7 1 .4.6-.3 1-.8 1-1.1 0-.2-.4-.4-1-.4-.5 0-1 .5-1 1.1zM35.6 180.2c.3.4 1.1.5 1.9.1 2.1-.7 1.9-1.2-.4-1-1.1 0-1.8.5-1.5.9zM294.6 181.8c-.3.5.1.9.9.9s1.2-.4.9-.9c-.3-.4-.7-.8-.9-.8-.2 0-.6.4-.9.8zM291.5 183.1c-.4.6-.5 1.2-.2 1.5.2.3.7-.2 1-1.1.7-1.7.1-2-.8-.4zM36.6 183.8c-.3.5.1.9.9.9s1.5-.4 1.5-.9c0-.4-.4-.8-.9-.8-.6 0-1.2.4-1.5.8zM403.4 188c0 1.3.4 1.6 1 1 .7-.7.7-1.3 0-2-.6-.6-1-.3-1 1zM43.5 191c-1 1.1-1.3 2-.7 2 .6 0 1.3-.6 1.5-1.3.4-1 .6-1 .6 0 .1.7.5 1.3 1 1.3.9 0 .9-2.5 0-3.5-.3-.3-1.4.4-2.4 1.5zM39.4 192.4c.1.8.5 1.8.8 2.2.4.3.5-.1.4-1-.1-.8-.5-1.8-.8-2.2-.4-.3-.5.1-.4 1zM403.5 192c.3.5.8 1 1.1 1 .2 0 .4-.5.4-1 0-.6-.5-1-1.1-1-.5 0-.7.4-.4 1zM36.5 198c-.3.6.1.7.9.4 1.8-.7 2.1-1.4.7-1.4-.6 0-1.3.4-1.6 1zM401 198.4c0 .2.8 1 1.8 1.7 1.5 1.3 1.6 1.2.3-.4s-2.1-2.1-2.1-1.3zM43 200c0 .5.5 1 1.1 1 .5 0 .7-.5.4-1-.3-.6-.8-1-1.1-1-.2 0-.4.4-.4 1zM45.5 201.9c-.3.5-.1 1.2.5 1.6.5.3 1 1.1 1 1.6 0 .6-.5.7-1.2.3-.7-.5-.8-.3-.3.6.6 1 1.1 1 2-.3.7-.9 1.5-1.4 1.9-1 .4.4.4-.1 0-1.1-.5-1.4-.9-1.5-1.5-.4-.8 1.2-1.3.4-1-1.5.1-1-.7-.9-1.4.2zM379.5 204c-.3.5.1 1 1 1s1.3-.5 1-1c-.3-.6-.8-1-1-1-.2 0-.7.4-1 1zM48.6 207.8c-.3.5.1.9.9.9s1.2-.4.9-.9c-.3-.4-.7-.8-.9-.8-.2 0-.6.4-.9.8zM51.9 209.2c-.5 1.8-.6 3.8-.1 3.4.7-.8 1.2-3.6.6-3.6-.2 0-.4.1-.5.2zM387 210c-1.3.8-1.2 1 .3 1 .9 0 1.7-.5 1.7-1 0-1.2-.1-1.2-2 0zM374.7 211.7c-.3.5.5.8 1.8.8s2.1-.3 1.8-.8c-.2-.4-1-.7-1.8-.7s-1.6.3-1.8.7zM375.6 213.8c-.3.5.1.9.9.9s1.2-.4.9-.9c-.3-.4-.7-.8-.9-.8-.2 0-.6.4-.9.8zM386.8 213.7c.7.3 1.6.2 1.9-.1.4-.3-.2-.6-1.3-.5-1.1 0-1.4.3-.6.6zM51.1 215.3c-.8 1-.7 1.4.2 1.4.8 0 1.4-.6 1.4-1.4 0-.7-.1-1.3-.2-1.3-.2 0-.8.6-1.4 1.3zM379 214.3c0 .2.6 1 1.4 1.6 1.1.9 1.6.9 2.2-.1.4-.7.4-1-.1-.6-.4.4-1.4.3-2.2-.3-.7-.6-1.3-.9-1.3-.6zM54.6 216.2c.3.5 1 .6 1.5.3 1.3-.9 1.1-1.2-.6-1.2-.8 0-1.2.4-.9.9zM372.7 216.1c.7.7 1.5 1 1.8.7.3-.3-.2-.9-1.2-1.2-1.4-.6-1.5-.5-.6.5zM388.6 216.2c.3.5 1 .6 1.5.3 1.3-.9 1.1-1.2-.6-1.2-.8 0-1.2.4-.9.9zM388.5 220c1 1.1 2 2 2.3 2 .3 0-.3-.9-1.3-2s-2-2-2.3-2c-.3 0 .3.9 1.3 2zM352.5 227.1c-.4.6-.5 1.2-.2 1.5.2.3.7-.2 1-1.1.7-1.7.1-2-.8-.4zM52.9 233.7c-.1.4-.1 1.2 0 1.7.4 1.9-2.3 5.7-3.6 5.1-.9-.3-1.1 0-.7.7.5.8.2.9-1 .5-1.4-.5-1.5-.3-.6 1.3.7 1.2.7 2.1 0 2.5-.5.3-1-.2-1.1-1.2 0-1.1-.3-1.3-.6-.5-.6 1.6 1.6 4.4 2.9 3.5.6-.3.8 0 .6.8-.3.8-1.1 1.3-1.8 1.1-.7-.1-1.8.2-2.6.9-.7.6-1.9.8-2.6.4-.7-.4-.4.1.7 1 2.3 1.8 3 5.9.9 5.1-.8-.3-1.1 0-.7.9.3.8.9 1.2 1.4.9.5-.3.9.2.9 1.1 0 .9-.4 1.3-1 1-.5-.3-1-.1-1 .4 0 1.8 1.9 1.2 3-1 .9-1.5.8-2.4-.1-3.5-.8-1-.8-1.4 0-1.5.6-.1 1.6-.3 2.1-.4.6-.1 1.2-.3 1.5-.4.3 0 .1-1-.5-2-.8-1.7-.4-2.6 2.6-5.5 2.1-2 3.1-3.6 2.4-3.6-1.1 0-1.1-.3-.2-1.2.7-.7 1.2-1.7 1.2-2.3 0-.5-.4-.4-.9.4-.6.9-1.1 1-1.5.3-.4-.6.6-1.8 2.1-2.7 1.5-.9 2-1.4.9-1.1-1.3.5-1.7.2-1.3-.9.4-.8.2-1.7-.3-2-.6-.4-1.1-.3-1.1.2zm-1.5 8.7c-1 .8-1.6 1.8-1.1 2.2.4.4.7.2.7-.4 0-.7.5-1.2 1.2-1.2.6 0 .4.7-.5 1.8-2 2.2-5.3 2.7-3.6.5.6-.7.8-1.3.3-1.3-1.2-.1 2.7-3 4-3 .5 0 .1.6-1 1.4zm-3.4 9.5c1 2.1-.2 2.4-2.9.7-1.1-.7-1.1-1 0-1.7 1.8-1.1 1.7-1.2 2.9 1zM341.6 234.9c-.4.5-.2 1.2.3 1.5.5.4 1.2.2 1.5-.3.4-.5.2-1.2-.3-1.5-.5-.4-1.2-.2-1.5.3z"/><path d="M47.4 236.7c.3.6 0 1.4-.6 1.7-.7.2-.3.4 1 .2 1.2-.1 2.8-.9 3.5-1.6 1-1.2.9-1.2-.4-.2-1.2.9-1.9.9-2.9-.1-.9-.8-1.1-.8-.6 0zM339.5 237.9c-.3.6-1 .9-1.5.6-.5-.3-1.1-.1-1.4.4-.4.5-.3 1.2.1 1.4 1 .7 4.8-2.1 4.1-2.9-.3-.3-.9 0-1.3.5zM343 239c-.9.6-1 1-.3 1 .6 0 1.5-.5 1.8-1 .8-1.2.4-1.2-1.5 0zM345.6 239.8c-.2.4-.1 1.4.4 2.2.7 1.1.9.9.7-.8-.1-2.4-.3-2.6-1.1-1.4zM42.6 242.2c.3.5 1 .6 1.5.3 1.3-.9 1.1-1.2-.6-1.2-.8 0-1.2.4-.9.9zM343 243c-.9.6-1 1-.3 1 .6 0 1.5-.5 1.8-1 .8-1.2.4-1.2-1.5 0zM41 243.9c0 .6.4 1.3 1 1.6.6.3.7-.1.4-.9-.7-1.8-1.4-2.1-1.4-.7zM292.6 244.2c.3.5 1 .6 1.5.3.5-.4.9-.1.9.5s.5.8 1 .5c1.8-1.1 1.1-2.1-1.4-2.1-1.4 0-2.2.4-2 .8zM341.3 246.9c0 .9.8 2.5 1.8 3.6s1.9 2.4 2.1 3c.3 1 3.8 1.5 3.8.6 0-.4-1-1.1-2.2-1.6-1.5-.6-2.2-1.7-2-2.9.3-1.4-.1-1.7-1.2-1.3-.9.4-1.6.2-1.6-.3 0-.9 1.4-1.4 3.3-1.1.4 0 .7-.3.7-.8 0-1.7-4.7-.9-4.7.8zM42.5 248c-.3.5-.2 1 .4 1 .5 0 1.3-.5 1.6-1 .3-.6.2-1-.4-1-.5 0-1.3.4-1.6 1zM189.6 249.8c-.3.5.1.9.9.9s1.2-.4.9-.9c-.3-.4-.7-.8-.9-.8-.2 0-.6.4-.9.8zM254.9 251.7c-1.3 1.6-1.2 1.7.4.4.9-.7 1.7-1.5 1.7-1.7 0-.8-.8-.3-2.1 1.3zM260.9 251.7c-1.3 1.6-1.2 1.7.4.4.9-.7 1.7-1.5 1.7-1.7 0-.8-.8-.3-2.1 1.3zM259.1 256.2c-.1 2.1 1.5 3.2 2.5 1.7.4-.7.3-.9-.4-.5-.6.3-1.3-.2-1.5-1.1-.4-1.6-.5-1.6-.6-.1zM349.9 256.7c-1.3 1.6-1.2 1.7.4.4 1.6-1.3 2.1-2.1 1.3-2.1-.2 0-1 .8-1.7 1.7zM354 256c-.9.6-1 1-.3 1 .6 0 1.5-.5 1.8-1 .8-1.2.4-1.2-1.5 0zM189.4 257.1c.1.7 1.2 1.3 2.4 1.4 1.1.1 1.9-.2 1.6-.7-.4-.5-1.2-.7-1.9-.4-.8.3-1.6.1-1.9-.5-.2-.5-.3-.4-.2.2zM40.4 260.5c-.4.8-1.1 1.2-1.8.8-.6-.3-.7-.2-.3.2 1.4 1.6 3.3 1.3 3.3-.6 0-2.3-.5-2.4-1.2-.4zM47 260c0 .5.5 1 1 1 .6 0 1-.5 1-1 0-.6-.4-1-1-1-.5 0-1 .4-1 1zM255.3 265.5c0 .8.4 1.2.9.9.5-.3.6-1 .3-1.5-.9-1.3-1.2-1.1-1.2.6zM187.7 266.5c-.8.8-1.8 1.1-2.2.7-.5-.4-.5-.1-.1.6.6 1.1 1.2 1 2.7-.4 1-.9 1.9-1.9 1.9-2.1 0-.7-.9-.2-2.3 1.2zM171.3 268.5c0 .8.4 1.2.8.9.4-.2.9 0 1.1.5.1.6 1.3.2 2.6-.7 2.2-1.7 2.2-1.8.2-1.8-1.1 0-2 .4-2 .9s-.6.4-1.3-.2c-1-.8-1.4-.7-1.4.4zM183.4 272c0 2.1.4 3.6.9 3.3.4-.3.6-.8.3-1.1-.3-.3.2-1.5 1.1-2.6 1.7-2 1.7-2-.1-.6s-1.9 1.3-1.3-.2c.3-1 .3-2-.2-2.2-.4-.3-.7 1.3-.7 3.4zM39.5 270c-.3.5-.1 1 .4 1 .6 0 1.1-.5 1.1-1 0-.6-.2-1-.4-1-.3 0-.8.4-1.1 1zM40.4 276.2c-1.2 1.4-1.3 1.8-.3 1 .9-.6 1.8-1 2.1-.7.2.3.5-.2.5-1 0-1.9 0-1.9-2.3.7zM308.6 276.7c-.6 1.4-.5 1.5.5.6.7-.7 1-1.5.7-1.8-.3-.3-.9.2-1.2 1.2zM43.5 278.9c-.3.5 0 1.3.6 1.7.7.4.9.3.5-.4-.3-.5 0-1.3.6-1.5.9-.4 1-.6.1-.6-.6-.1-1.4.3-1.8.8zM261.3 280.8c-.1 2.2 0 2.4.9.8.6-1 .6-2.2.2-2.6-.5-.5-1 .3-1.1 1.8zM315.9 278.7c-.1.1-.2.7-.3 1.2-.2 1.8-1.6 2.4-1.6.8 0-1-.5-1.7-1-1.7-.7 0-.7.7 0 2.1.7 1.1 1.4 1.8 1.7 1.5.3-.3 1.5 0 2.7.6 1.1.7 2.5 1.2 3 1.3.5 0 1.1.6 1.4 1.3.2.7-.2 1-1.2.6-.9-.3-1.6-.1-1.6.6 0 .6.5.8 1 .5.6-.3 1-.1 1 .4 0 .6.5 1.1 1.1 1.1.5 0 .7-.5.4-1-.3-.6.1-1 .9-1 .9 0 1.5.3 1.5.7-.3 2 .2 3.3 1.2 3.3.8 0 .8-.4.2-1.3-.6-.6-.9-2-.8-3 .2-.9-.1-1.4-.7-1.1-1.2.8-4.9-2.6-4.2-3.8.3-.4.2-.8-.3-.7-2.5.4-3.5-.1-2.4-1.4.8-1 .7-1.4-.4-1.4-.8 0-1.6.2-1.6.4zM297.5 280c-.3.6 0 1.3.9 1.6.8.3 1.2 1.3.9 2.2-.4 1.5-.3 1.5.6.2.8-1.1.7-1.8-.4-2.6-.8-.6-1.2-1.4-.8-1.7.3-.4.4-.7 0-.7-.3 0-.9.5-1.2 1zM303 279.9c0 .6.4 1.2.8 1.5.5.3.9-.1.9-.9s-.4-1.5-.9-1.5c-.4 0-.8.4-.8.9zM44 284c-.8.5-1 1-.5 1 .6 0 1.7-.5 2.5-1s1.1-1 .5-1c-.5 0-1.7.5-2.5 1zM260 285c-.9.6-1 1-.3 1 .6 0 1.5-.5 1.8-1 .8-1.2.4-1.2-1.5 0z"/><path d="M314.8 284.7c.6.2 1 .9.7 1.4-.4.5.1.6 1 .2 1.3-.5 1.4-.7.3-1.4-.7-.5-1.7-.8-2.3-.8-.5 0-.4.3.3.6zM42.6 288.2c.3.5 1 .6 1.5.3 1.3-.9 1.1-1.2-.6-1.2-.8 0-1.2.4-.9.9zM47 288c0 .5.5 1 1.1 1 .5 0 .7-.5.4-1-.3-.6-.8-1-1.1-1-.2 0-.4.4-.4 1zM316 288c-.9.6-1 1-.3 1 .6 0 1.5-.5 1.8-1 .8-1.2.4-1.2-1.5 0zM311.5 290c.3.5.8 1 1.1 1 .2 0 .4-.5.4-1 0-.6-.5-1-1.1-1-.5 0-.7.4-.4 1zM317.6 289.9c-.3.5.1 1.4.9 2.1.8.7 1.5.9 1.5.5s.7-.1 1.7.6c1.5 1.3 1.5 1.2.2-.8-.9-1.6-1.6-1.9-2.1-1-.7 1.1-1.2.3-.9-1.6.1-1-.7-.9-1.3.2zM55 292c0 .5.7.7 1.5.4.8-.4 1.5-.8 1.5-1 0-.2-.7-.4-1.5-.4s-1.5.4-1.5 1zM49.5 294c.3.5.8 1 1.1 1 .2 0 .4-.5.4-1 0-.6-.5-1-1.1-1-.5 0-.7.4-.4 1zM53 293.9c0 .6.4 1.3 1 1.6.6.3.7-.1.4-.9-.7-1.8-1.4-2.1-1.4-.7zM300.6 294.2c.3.5 1 .6 1.5.3 1.3-.9 1.1-1.2-.6-1.2-.8 0-1.2.4-.9.9zM295.4 295.4c.1.8.5 1.8.8 2.2.4.3.5-.1.4-1-.1-.8-.5-1.8-.8-2.2-.4-.3-.5.1-.4 1zM311 299.9c0 .6.4 1.3 1 1.6.6.3.7-.1.4-.9-.7-1.8-1.4-2.1-1.4-.7zM293.8 302.1c-2 1.1-2.4 2.9-.6 2.9.6 0 .8-.3.4-.7-.3-.4.4-1.3 1.6-2 1.3-.7 1.9-1.2 1.3-1.2-.5 0-1.8.4-2.7 1zM298 301.4c0 .2.8 1 1.8 1.7 1.5 1.3 1.6 1.2.3-.4s-2.1-2.1-2.1-1.3z"/><path d="M288 303.1c-1.3.9-1.2 1 .3.5.9-.3 1.7-.1 1.7.4s-.8 1.4-1.7 1.9c-1 .6-1.3 1.1-.7 1.1.6 0 1.7 1.3 2.4 3 .7 1.6 1.7 3 2.2 3 .5 0 .7.3.5.7-.3.5.5.9 1.8.9 1.6.1 2.7-.6 3.5-2.4.9-2.1 1.3-2.3 2-1.2.6 1 .4 1.8-.6 2.3-1.4.8-1.4 1.1 0 3.1.9 1.5 1.1 2.7.5 3.3-1.9 1.9 1.5 3.5 4.5 2.2 2.6-1.2 3.5-2.9 1.6-2.9-.5 0-1 .4-1 1 0 1.7-1.4 1.1-2.8-1.1-1.2-1.9-1.1-2 .7-1.4 1.3.4 2.1.2 2.1-.5 0-.6-.4-.9-.9-.6-1 .7-3.6-2.2-2.8-3.1.4-.3.2-1.4-.4-2.5-.9-1.6-1.3-1.7-2.5-.7-1.3 1.1-1.5.9-1.1-1.2.2-1.3.2-1.8 0-1.2-.3.7-.9 1.3-1.4 1.3-1.2 0-1.2-2.7.1-3.5.6-.3 1-1 1-1.6 0-.5-.8-.1-1.8.8-1 1-1.7 2.3-1.5 2.8.2.6-.6 1.1-1.8 1.2-1.7.2-1.8-.1-.8-1.3s.9-1.3-.7-.8c-1.6.6-1.7.5-.6-.7 1.3-1.4 1.6-3.9.5-3.9-.5 0-1.5.5-2.3 1.1zm6 7.1c0-1 .4-1 1.6.2 2.4 2.4.7 3.9-2.1 1.9-1.2-1-2.1-2.2-1.8-2.7.3-.4.9-.2 1.4.5.7 1.1.9 1.1.9.1zm6.8 6.3c-.3.3-.9-.2-1.2-1.2-.6-1.4-.5-1.5.5-.6.7.7 1 1.5.7 1.8zm1.6 4.1c.3.8.2 1.2-.4.9-.6-.3-1-1-1-1.6 0-1.4.7-1.1 1.4.7zM301.6 304.7c-.6 1.4-.5 1.5.5.6.7-.7 1-1.5.7-1.8-.3-.3-.9.2-1.2 1.2zM155.8 305.7c.7.3 1.6.2 1.9-.1.4-.3-.2-.6-1.3-.5-1.1 0-1.4.3-.6.6zM299 305.5c0 1.3 2 3.5 3.2 3.5.4 0 .8-.5.8-1.1 0-.5-.4-.8-.9-.4-.6.3-1.4-.3-2-1.2-.6-1-1.1-1.3-1.1-.8zM154 307.5c.7.8 1 1.6.6 1.6-.3.1-1 .2-1.5.3-.5 0-1.2.4-1.6.8-.6.5 1.9.4 3.5-.2.3-.1.9-.2 1.5 0 .5.1.1-.8-.9-1.9-2.2-2.4-3.5-2.9-1.6-.6zM323.5 306.9c-.3.5-.2 1.2.3 1.5.5.3.9-.1.9-.9 0-1.7-.3-1.9-1.2-.6zM149.5 308c.3.5.8 1 1.1 1 .2 0 .4-.5.4-1 0-.6-.5-1-1.1-1-.5 0-.7.4-.4 1zM154.5 311.9c-.3.6-.1 1.1.6 1.1s.5.8-.7 2.1c-1.4 1.6-1.5 2.2-.5 2.8.9.6 1 1.1.3 1.5-.6.4-1.5-.2-2.1-1.1-.6-1-1.1-1.3-1.1-.7 0 .6.3 1.4.8 1.8.7.8.9 1.3 1.1 4.3.1 1.3.6 1 2-1.2 1.2-1.9 1.5-3.4.9-4.2-.5-.7-.5-1.4.1-1.7.5-.4.8-1.6.6-2.8-.5-2.6-1.1-3.2-2-1.9zm1.5 7.5c0 .2-.8 1-1.7 1.7-1.6 1.3-1.7 1.2-.4-.4 1.3-1.6 2.1-2.1 2.1-1.3z"/><path d="M151.3 314.5c0 .8.4 1.2.9.9.4-.3.8-.9.8-1.5 0-.5-.4-.9-.8-.9-.5 0-.9.7-.9 1.5zM303 313.8c0 .5.7.9 1.5.9s1.2-.4.9-.9c-.3-.4-.9-.8-1.5-.8-.5 0-.9.4-.9.8zM307.3 314.5c0 .8.4 1.2.9.9.5-.3.6-1 .3-1.5-.9-1.3-1.2-1.1-1.2.6zM149.6 320.3c.4 1.1-.2 1.4-2 1.2-1.5-.2-2.4 0-2.1.4.6 1.1 4.8.6 5.2-.6.2-.6-.1-1.4-.6-1.8-.6-.3-.8 0-.5.8zM307.1 323.6c0 1.1.3 1.4.6.6.3-.7.2-1.6-.1-1.9-.3-.4-.6.2-.5 1.3zM147.5 328c-.3.5-.2 1 .4 1 .5 0 1.3-.5 1.6-1 .3-.6.2-1-.4-1-.5 0-1.3.4-1.6 1zM313.6 329.8c-.3.5.1.9.9.9s1.2-.4.9-.9c-.3-.4-.7-.8-.9-.8-.2 0-.6.4-.9.8zM87.6 333.3c.3 1 .9 1.5 1.2 1.2.3-.3 0-1.1-.7-1.8-1-.9-1.1-.8-.5.6zM311.4 333.1c-.3.6-.2 1.5.3 2s.9.1.9-1.1c0-2.3-.2-2.4-1.2-.9zM145.6 339.3c.3 1 .9 1.5 1.2 1.2.3-.3 0-1.1-.7-1.8-1-.9-1.1-.8-.5.6zM206 342.9c0 .6.4 1.3 1 1.6.6.3.7-.1.4-.9-.7-1.8-1.4-2.1-1.4-.7zM255.7 342.7c-1 1-.8 2.3.4 2.3.5 0 .7-.5.3-1.2-.5-.8-.2-.9 1-.5 1 .4 1.5.3 1.1-.3-.7-1.2-1.9-1.3-2.8-.3zM209.1 344.6c0 1.1.3 1.4.6.6.3-.7.2-1.6-.1-1.9-.3-.4-.6.2-.5 1.3zM55 345.4c0 .2.7.7 1.6 1 .8.3 1.2.2.9-.4-.6-1-2.5-1.4-2.5-.6zM150.7 348.1c.7.9 1 1.9.6 2.2-.3.4-.1.7.5.7 1.7 0 1.5-1.6-.5-3.1-1.6-1.2-1.7-1.2-.6.2zM257.9 348.4c1.7 2-1.9 4.1-3.9 2.3-1.2-1-1.2-.9-.1.5 1.3 1.7 2.1 1.6 4.8-.4 1.3-1.1.6-3.8-.9-3.8-.6 0-.6.6.1 1.4zM310.7 350.1c.7.7 1.5 1 1.8.7.3-.3-.2-.9-1.2-1.2-1.4-.6-1.5-.5-.6.5zM210 352.1c0 .5.5.7 1 .4.6-.3 1-.8 1-1.1 0-.2-.4-.4-1-.4-.5 0-1 .5-1 1.1zM307.4 352.1c-.3.6-.2 1.5.3 2s.9.1.9-1.1c0-2.3-.2-2.4-1.2-.9zM92.5 354c.3.5.8 1 1.1 1 .2 0 .4-.5.4-1 0-.6-.5-1-1.1-1-.5 0-.7.4-.4 1zM210.1 355.6c0 1.1.3 1.4.6.6.3-.7.2-1.6-.1-1.9-.3-.4-.6.2-.5 1.3zM51 355.7c0 1.8 2.7 3.6 3.5 2.3.4-.6.4-1.4.1-1.7-.3-.4-.6 0-.6.8-.1 1-.5.8-1.5-.5-.8-1.1-1.5-1.5-1.5-.9zM311.5 356c.3.5.8 1 1.1 1 .2 0 .4-.5.4-1 0-.6-.5-1-1.1-1-.5 0-.7.4-.4 1zM153.5 358c.3.5.8 1 1.1 1 .2 0 .4-.5.4-1 0-.6-.5-1-1.1-1-.5 0-.7.4-.4 1zM305.4 358.2c-.4.7-.3 1 .1.5.5-.4 1.8.1 2.9 1 2.1 1.8 2.1 1.8.2-.5-2.2-2.6-2.3-2.6-3.2-1zM158 360.3c-1.1 1.9-1.1 2 .1 1.1.8-.6 2.1-1.3 2.8-1.6 1.3-.4 1.3-.5 0-1-.9-.4-2.1.2-2.9 1.5zM207.5 360c-.3.5-.1 1.1.5 1.5.6.4.7 1.1.4 1.7-.4.7-.2.8.5.4.6-.4.9-1.1.6-1.6-.3-.4 0-1 .7-1.2.8-.3.6-.7-.5-1.1-.9-.3-1.9-.2-2.2.3zM93.5 362c.3.5.8 1 1.1 1 .2 0 .4-.5.4-1 0-.6-.5-1-1.1-1-.5 0-.7.4-.4 1zM212.3 361.7c-.7.2-1.3.9-1.3 1.5 0 .7.5.7 1.3-.1.8-.6 1.8-.7 2.2-.3.5.4.5.1.1-.6-.4-.6-.8-1.2-.9-1.1-.1 0-.8.3-1.4.6zM91.7 363.1c.7.9 1 1.9.6 2.3-.4.4.1.4 1 0 1-.3 1.7-.7 1.5-.8-.2-.1-1.2-.8-2.3-1.6-1.8-1.4-1.9-1.3-.8.1zM302.6 363.7c-.6 1.4-.5 1.5.5.6.7-.7 1-1.5.7-1.8-.3-.3-.9.2-1.2 1.2zM49.5 364.1c-.3.4.2.6 1 .5 2.1-.3 2.8-1.3 1-1.3-.9 0-1.8.4-2 .8zM157.6 364.7c-.6 1.4-.5 1.5.5.6.7-.7 1-1.5.7-1.8-.3-.3-.9.2-1.2 1.2zM160.6 363.8c-.3.5.1.9.9.9s1.5-.4 1.5-.9c0-.4-.4-.8-.9-.8-.6 0-1.2.4-1.5.8zM51.3 367.5c0 .8.4 1.5.9 1.5.4 0 .8-.4.8-.9 0-.6-.4-1.2-.8-1.5-.5-.3-.9.1-.9.9zM99 366.4c0 .2.8 1 1.8 1.7 1.5 1.3 1.6 1.2.3-.4s-2.1-2.1-2.1-1.3zM163.3 367.5c0 .8.4 1.5.9 1.5.4 0 .8-.4.8-.9 0-.6-.4-1.2-.8-1.5-.5-.3-.9.1-.9.9zM211.6 368.2c.3.5 1 .6 1.5.3 1.3-.9 1.1-1.2-.6-1.2-.8 0-1.2.4-.9.9zM301.5 368.1c-1.1 1.6-.1 1.9 1.3.3.7-.8.8-1.4.3-1.4s-1.3.5-1.6 1.1zM251.9 370.7c-1.2 1.6-1.2 1.7.2.6.9-.7 2-.9 2.4-.5.5.4.5.1.1-.6-.9-1.6-1.1-1.5-2.7.5zM50.7 372.1c.7.7 1.5 1 1.8.7.3-.3-.2-.9-1.2-1.2-1.4-.6-1.5-.5-.6.5zM292.1 373.1c-1.4 1.3-2 2.7-1.6 3.9.7 2.2-3.7 5.6-5.7 4.4-.7-.4-.4.2.6 1.4 1.4 1.6 2.2 1.9 3.2 1.1.9-.7 2-.6 3.8.6 2.4 1.6 2.5 1.6 2.1-.3-.2-1.2-.8-2.9-1.3-3.9-.9-1.8.1-6.3 1.4-6.3.3 0 .4.6.1 1.3-.3.8.1 1.4.9 1.4 1.7 0 1.8-.9.2-2.6-1.1-1.1-.8-1.2 1.2-.6 2.8.8 2.6.3-.6-1.3-1.7-.9-2.5-.7-4.3.9zm1.2 1.3c-1 1.3-2 2.2-2.2 2-.4-.4 2.9-4.4 3.6-4.4.2 0-.4 1.1-1.4 2.4zm-1.6 5.2c-.3.4.1 1.3.9 2.1.8.9 1.2 1.8.9 2.2-.4.3-1.3-.2-2-1.2-.8-1.2-1.5-1.4-2-.8-.3.6-1.1 1.1-1.7 1.1-.5 0 0-.9 1.3-2 2.2-1.8 4-2.8 2.6-1.4zM299.6 372.2c.3.5 1 .6 1.5.3 1.3-.9 1.1-1.2-.6-1.2-.8 0-1.2.4-.9.9zM253.5 373c-.3.6.1.7.9.4 1.8-.7 2.1-1.4.7-1.4-.6 0-1.3.4-1.6 1zM169.3 377.2c-.2 1.8 0 2 .7.8 1.2-1.8 1.3-3 .2-3-.4 0-.9 1-.9 2.2zM253.3 377.1c-.2 2.3.3 2.5 1 .4.4-.8.3-1.6-.1-1.9-.4-.3-.9.4-.9 1.5zM258 375.9c0 .7-.5.9-1.2.5-1.4-.8 2 3.6 3.7 4.8.6.5.5.8-.2.8s-1.3.8-1.3 1.7c0 1.5.2 1.4 1.4-.3 1.1-1.4 1.2-2.2.3-3.2-.6-.8-1.2-2.1-1.3-2.9-.3-1.9-1.4-3-1.4-1.4zM171.6 377.9c-.3.5.1 1.4.9 2.1 1 .9 1.5.9 1.5.1 0-.6-.5-1.1-1.1-1.1-.5 0-.7-.5-.4-1 .3-.6.4-1 .1-1-.3 0-.7.4-1 .9z"/><path d="M299.1 378.7c.7 1.2 1.5 2 1.8 1.7.3-.2-.3-1.2-1.3-2.2-1.7-1.6-1.8-1.6-.5.5zM52 380.1c-1.3.9-1.3 1 .1.6.9-.3 2.3 0 3 .6 1.1 1 1.1.9 0-.6-.7-.9-1.4-1.7-1.5-1.7 0 0-.8.5-1.6 1.1zM255.8 381.7c.7.3 1.6.2 1.9-.1.4-.3-.2-.6-1.3-.5-1.1 0-1.4.3-.6.6zM297 382.1c0 .5.5.7 1 .4.6-.3 1-.8 1-1.1 0-.2-.4-.4-1-.4-.5 0-1 .5-1 1.1zM183 383.8c0 .7-.4 1.1-.8.8-1.2-.7-3.8 1.2-2.8 2.1.5.4 1.1.2 1.3-.5.3-.6.9-.9 1.4-.6.6.3.5 1.1-.2 2-1.9 2.3-.2 1.6 2.5-1.1 1.4-1.3 2-2.7 1.5-3-.5-.4-.9 0-.9.7 0 .9-.3.9-1-.2s-1-1.1-1-.2zM192.7 384.5c-.4.8-.3 1.6.1 1.9.4.3.9-.4.9-1.5.2-2.3-.3-2.5-1-.4zM253.6 384.2c.3.5 1 .6 1.5.3 1.3-.9 1.1-1.2-.6-1.2-.8 0-1.2.4-.9.9zM260.6 385.5c-.3 1 0 1.2 1.1.8 1.1-.4 1.4-.2.9.5-.4.7 0 2.2.8 3.4.9 1.2 1.6 1.8 1.7 1.3 0-.6.2-1.8.4-2.7.2-.9-.7-2.4-2-3.2-2-1.3-2.4-1.3-2.9-.1zm4.1 3c0 .8-.4 1.2-.9.9-.4-.3-.8-.9-.8-1.5 0-.5.4-.9.8-.9.5 0 .9.7.9 1.5zM284.2 385.2c-.7.7-1.2 1.5-1.2 1.9 0 1.1 3.3.4 3.7-.8.6-1.7-1.2-2.4-2.5-1.1zM55 386c0 .5.5 1 1.1 1 .5 0 .7-.5.4-1-.3-.6-.8-1-1.1-1-.2 0-.4.4-.4 1zM95.6 385.8c-.3.5.1.9.9.9s1.2-.4.9-.9c-.3-.4-.7-.8-.9-.8-.2 0-.6.4-.9.8zM257.6 386.3c.3 1 .9 1.5 1.2 1.2.3-.3 0-1.1-.7-1.8-1-.9-1.1-.8-.5.6zM288.5 386c-.3.5-.2 1 .4 1 .5 0 1.3-.5 1.6-1 .3-.6.2-1-.4-1-.5 0-1.3.4-1.6 1zM90.8 387.1c-1 .5-1.8 1.5-1.8 2.2 0 .8.3.7.9-.2.5-.7 1.3-1.1 1.8-.8.5.3 1 0 1-.8s-.1-1.5-.1-1.5c-.1 0-.9.5-1.8 1.1zM205.6 387.3c.3 1 .9 1.5 1.2 1.2.3-.3 0-1.1-.7-1.8-1-.9-1.1-.8-.5.6zM80 388c-.9.6-1 1-.3 1 .6 0 1.5-.5 1.8-1 .8-1.2.4-1.2-1.5 0zM176 388c-.9.6-1 1-.3 1 .6 0 1.5-.5 1.8-1 .8-1.2.4-1.2-1.5 0zM203.3 388.9c0 1.1.5 1.8.9 1.5.4-.3.5-1.1.1-1.9-.7-2.1-1.2-1.9-1 .4zM290.2 387.9c-.9.5-.4.8 1.6.7 1.7-.1 2.8-.4 2.5-.9-.6-.9-2.5-.9-4.1.2zM259 389.5c-1.1 1.3-1 1.4.4.9.9-.3 1.6-1 1.6-1.5 0-1.3-.6-1.1-2 .6zM67.5 389.9c-.3.5-.2 1.2.3 1.5.5.3.9-.1.9-.9 0-1.7-.3-1.9-1.2-.6zM187 390.9c0 .6.4 1.3 1 1.6.6.3.7-.1.4-.9-.7-1.8-1.4-2.1-1.4-.7zM196.1 391.6c0 1.1.3 1.4.6.6.3-.7.2-1.6-.1-1.9-.3-.4-.6.2-.5 1.3zM287.5 391c-.3.5-.3 1 .1 1s-.1.7-1.2 1.5c-1.9 1.5-1.9 1.5.1.8 2-.6 2-.6 0 1.8-1.8 2.3-1.8 2.3 0 .7 1.1-1 2-2.9 2.1-4.3.1-2.7-.1-3.1-1.1-1.5zM291 390.4c0 .2.8 1 1.8 1.7 1.5 1.3 1.6 1.2.3-.4s-2.1-2.1-2.1-1.3zM190.5 392.1c-1.1 1.6-.1 1.9 1.3.3.7-.8.8-1.4.3-1.4s-1.3.5-1.6 1.1zM265.6 392.5c-.5 1.4 3 4.2 4.1 3.2.2-.3-.5-.8-1.6-1.2-1.2-.4-1.8-1.2-1.4-2.1.3-.7.3-1.4 0-1.4s-.7.7-1.1 1.5zM87.3 394.5c0 .8.4 1.2.9.9.5-.3.6-1 .3-1.5-.9-1.3-1.2-1.1-1.2.6zM177.3 394.5c0 .8.4 1.2.9.9.5-.3.6-1 .3-1.5-.9-1.3-1.2-1.1-1.2.6zM182.7 394.1c.7.9 1 1.9.6 2.2-.3.4-.1.7.5.7 1.7 0 1.5-1.6-.5-3.1-1.6-1.2-1.7-1.2-.6.2zM291 394.4c0 .2.8 1 1.8 1.7 1.5 1.3 1.6 1.2.3-.4s-2.1-2.1-2.1-1.3zM79 396.1c-1.2.8-1 .9.9.4 1.7-.5 2.2-.4 1.6.5-.5.9-.4 1.1.4.6.6-.4.9-1.2.6-1.7-.8-1.2-1.6-1.1-3.5.2zM186.6 396.2c.3.5 1 .6 1.5.3 1.3-.9 1.1-1.2-.6-1.2-.8 0-1.2.4-.9.9zM74 397.1c0 .5-.4.8-.9.4-.6-.3-1.4.3-2 1.2-.9 1.6-1.2 1.6-2.1.3-.6-.9-1-1-1-.3 0 2.1 2.3 2.7 3.6.9.7-1 1.6-1.7 2-1.6.5.1 1-.3 1.2-.9.2-.6.1-1.1-.2-1.1-.3 0-.6.5-.6 1.1zM271.6 397.3c.3 1 .9 1.5 1.2 1.2.3-.3 0-1.1-.7-1.8-1-.9-1.1-.8-.5.6zM280 396.4c0 .2.7.7 1.6 1 .8.3 1.2.2.9-.4-.6-1-2.5-1.4-2.5-.6zM65.5 397.9c-.3.5-.2 1.2.3 1.5.5.3.9-.1.9-.9 0-1.7-.3-1.9-1.2-.6zM197.5 397.9c-.3.5-.2 1.2.3 1.5.5.3.9-.1.9-.9 0-1.7-.3-1.9-1.2-.6zM269.3 398.2c.1.7-.4 1.2-1.1 1-.8-.1-1.1.2-.7.8.5.8 1.1.8 2.1-.1.7-.6 1.1-1.5.8-2-.8-1.3-1.4-1.1-1.1.3zM77.3 399.7c.1 1.7.4 1.9 1.4 1.1 1.5-1.2 1.8-2.2.4-1.4-.5.4-1.1 0-1.4-.6-.3-.7-.4-.3-.4.9zM279.3 399.4c0 1.5 2.2 1.5 3.4 0 .4-.5.4-.6-.1-.2-.5.4-1.4.3-2.1-.2-.8-.7-1.2-.5-1.2.4zM81.6 400.1c.4.8 3 .6 3.8-.2.3-.3-.5-.5-1.9-.5-1.3 0-2.2.3-1.9.7zM284.6 399.8c-.3.5.1.9.9.9s1.2-.4.9-.9c-.3-.4-.7-.8-.9-.8-.2 0-.6.4-.9.8zM271.3 401.5c0 .8.4 1.2.9.9.5-.3.6-1 .3-1.5-.9-1.3-1.2-1.1-1.2.6zM71.9 402.7c-1.3 1.6-1.2 1.7.4.4.9-.7 1.7-1.5 1.7-1.7 0-.8-.8-.3-2.1 1.3z"/></svg>